/* XPM */
static char *b0a8ee7b18b343898d071e089a21397fWELI3rdHs8XvNFhD[] = {
/* columns rows colors chars-per-pixel */
"64 64 211 2 ",
"   c None",
".  c #020101",
"X  c #090605",
"o  c #0A0907",
"O  c #0D0C0B",
"+  c #050C0B",
"@  c #120E0C",
"#  c #180606",
"$  c #11100E",
"%  c #021615",
"&  c #0C1413",
"*  c #051816",
"=  c #0D1816",
"-  c #041A19",
";  c #0B1C1A",
":  c #151413",
">  c #181715",
",  c #151816",
"<  c #1A1816",
"1  c #1D1C1B",
"2  c #171E1B",
"3  c #07110F",
"4  c #2A0505",
"5  c #320202",
"6  c #370606",
"7  c #201F1D",
"8  c #2C1716",
"9  c #3C1815",
"0  c #381716",
"q  c #2D110E",
"w  c #09201E",
"e  c #22211E",
"r  c #1C2A26",
"t  c #1E312C",
"y  c #242322",
"u  c #282725",
"i  c #292926",
"p  c #2B2B2A",
"a  c #32322F",
"s  c #353534",
"d  c #3B3A3A",
"f  c #373A39",
"g  c #2F312E",
"h  c #420201",
"j  c #4B0101",
"k  c #560506",
"l  c #441916",
"z  c #461919",
"x  c #541918",
"c  c #630003",
"v  c #690104",
"b  c #6A050B",
"n  c #6A060C",
"m  c #7B0000",
"M  c #770909",
"N  c #6C0B12",
"B  c #710C13",
"V  c #7F0E10",
"C  c #6C191C",
"Z  c #6B1618",
"A  c #73141A",
"S  c #75191D",
"D  c #7B1A1C",
"F  c #771515",
"G  c #483500",
"H  c #5F201B",
"J  c #60201E",
"K  c #751A22",
"L  c #791A20",
"P  c #552E2D",
"I  c #6B2728",
"U  c #37413E",
"Y  c #554A18",
"T  c #50423F",
"R  c #393F45",
"E  c #3B4345",
"W  c #424441",
"Q  c #4D4D4B",
"!  c #474947",
"~  c #43514F",
"^  c #4F5653",
"/  c #5B5D5A",
"(  c #565756",
")  c #51504E",
"_  c #72524F",
"`  c #5A615F",
"'  c #67675A",
"]  c #5C6462",
"[  c #5F6C71",
"{  c #616966",
"}  c #646767",
"|  c #6A746F",
" . c #6D7B75",
".. c #747D79",
"X. c #717A77",
"o. c #706E6C",
"O. c #850100",
"+. c #8A0301",
"@. c #8D0D0A",
"#. c #8A0807",
"$. c #9B0000",
"%. c #930807",
"&. c #92110E",
"*. c #8C1916",
"=. c #841A1A",
"-. c #8A1A1A",
";. c #831713",
":. c #941916",
">. c #991915",
",. c #941B1B",
"<. c #951916",
"1. c #A80202",
"2. c #AB1B1D",
"3. c #A71915",
"4. c #BB1917",
"5. c #B10609",
"6. c #95201E",
"7. c #86282A",
"8. c #9A2423",
"9. c #883538",
"0. c #903636",
"q. c #A33936",
"w. c #B93634",
"e. c #B72322",
"r. c #A6453F",
"t. c #B7413D",
"y. c #894143",
"u. c #934447",
"i. c #9D565A",
"p. c #815252",
"a. c #A64B47",
"s. c #A35E58",
"d. c #B55C56",
"f. c #BA4E4B",
"g. c #976569",
"h. c #A66464",
"j. c #B86866",
"k. c #A37B74",
"l. c #B57473",
"z. c #C25C55",
"x. c #CE625B",
"c. c #CB6764",
"v. c #D56561",
"b. c #D77172",
"n. c #67827C",
"m. c #78837E",
"M. c #B28379",
"N. c #C3817C",
"B. c #768A84",
"V. c #769288",
"C. c #7E9F97",
"Z. c #7DA097",
"A. c #7FBCB2",
"S. c #828B87",
"D. c #86938E",
"F. c #88958E",
"G. c #829C93",
"H. c #8B9994",
"J. c #8B9994",
"K. c #979B93",
"L. c #A7958C",
"P. c #AD9A98",
"I. c #8AA49B",
"U. c #8DA99F",
"Y. c #93A29D",
"T. c #A2A19D",
"R. c #8398A3",
"E. c #8EACA2",
"W. c #94AAA3",
"Q. c #9BACA6",
"!. c #98B4AB",
"~. c #81BFB5",
"^. c #9FB8B0",
"/. c #A9A3A4",
"(. c #BCA1A8",
"). c #A3B5AE",
"_. c #A5BAB3",
"`. c #ABBBB5",
"'. c #B2B9B5",
"]. c #C88D89",
"[. c #E18D89",
"{. c #CFAEB2",
"}. c #E3A2A1",
"|. c #ADC3BB",
" X c #B3C4BE",
".X c #A5BDC7",
"XX c #8FCDC2",
"oX c #ACC2C3",
"OX c #B4CAC2",
"+X c #B9CDC6",
"@X c #B6C8C5",
"#X c #BCD2CB",
"$X c #B9DAD6",
"%X c #ADDED6",
"&X c #B8E3DD",
"*X c #C1D3CE",
"=X c #C4DBD3",
"-X c #C8DED6",
";X c #C1CFCA",
":X c #CFE8DF",
">X c #CCE9E4",
",X c #D0E7E0",
"<X c #D2EBE3",
"1X c #D7E7E9",
"2X c #DBF3EB",
"3X c #DEF2F9",
"4X c #E7E6E5",
"5X c #E3FDF5",
"6X c #EFFFFF",
"7X c #FEFEFD",
"8X c #F0FEFE",
/* pixels */
"                                      p Q                                           i                                           ",
"                                    u o .                                         o X y                                         ",
"                                  . $   W       p 1 1 1 p         p 1 1 1 p       W   O .                                       ",
"                                < @ :       f > y 1 > > > :     o 1 1 : 1 1 > f       > O 1                                     ",
"                                o y 1 s W e 1 1 < y y y y o Q ! X p y y y < 1 1 y W s y y X                                     ",
"                              ( . p y 1 > y 7 y p y 7 1 y p O O p y 7 7 y p y 1 e > y y p . '                                   ",
"                                . 1 p y < > p e : : > > $ y 7 1 i $ : > : : e p 1 < y p 7 .                                     ",
"                                1 . > : ..d . < < < < < < X s d X < < < < < < . f ..: < . <                                     ",
"                                  . $ . D.OXO X 1 < < 1 @ . D.Y.. O 1 < < 1 X O  XJ.. $ .                                       ",
"                                  } . .  .2XJ.. @ > O . . { ,X<X| . . O : $ . D.2X... . }                                       ",
"                                      . { OX*Xm.. . g | ).5X#X#X5X`. .s . . ..=XOX{ .                                           ",
"                                        K.W.!.J.p _.` _.<XY.=X=XY.<X`.] |.g S.!.W.Y.                                            ",
"                                        ;XI.G.n.).6Xe . R.S.Q.Q.S.R.. e 6X_. .G.H.;X                                            ",
"                                        '.I.V.U.=X,XE . G [ +X+X{ G . E ,X=XE.V.I.`.                                            ",
"                                         XI.V.I.#X-XoX' Y R 5X5XE Y ' oX-X#XI.V.I. X                                            ",
"                                          OX_.^.+XOX-X>X.X).D.F.)..X<X-XOX+X_._. X                                              ",
"                                            ( { #X#X+X#X,XW . . W ,X#X+X#X#X{ (                                                 ",
"                                        f 1 : f =X=X+X+X,XY.X . H.,X+X+X=X=Xf : 7 d                                             ",
"                              / 2 W   / . . y y J.5X,X:X,X2XOX X2X:X:X,X5XH.y y X . /   E 2 (                                   ",
"                          ` ; . @ . . E ) g : O 1 X.Y.J.S.Y.#X#XW.S.J.Y...1 O : p Q U . . @ X ; /                               ",
"                      / w . k x x x l 4 & t r > O . & , . E E.E.^ . , = . O : 2 t & 4 l x x x k . ; ]                           ",
"                    + . 5 =.4.l C F z 2.C 9 8 < , & h _ n.B.I.I.B.n._ h & , < 8 9 C 2.z F A l 4.=.5 . .   b.                    ",
"                    ~   w.$.;.8 -.3.0 Z 4.2.C < , % c l.XXU.G.G.I.XXM.v % , , S 2.3.F 9 3.*.8 V 1.w.                            ",
"                          c.j 4 $.$.c l >.l = , < * h s.~.G.G.G.G.~.s.h * < = , *.4.q k $.$.5 j f.      {.                      ",
"                            0 I     x.9 % * < > o > O F L.A.C.Z.A.L.F O , > < % 9 M 9 z.    I P   $X1X1X3X@X                    ",
"                                      X & 1 X . e < ; # D k.K.K.k.D # ; : X > < : @               P.(.(.(./.                    ",
"                                    . $ 1 . : /.4XO @ ; O h H J h O ; : y Q O < . !               j.4.5.1.Z                     ",
"                                  y . 1 . T 4X7X7X! . 1 , * 3 + * , 1 . Q   y o o i               h.1.1.m p.                    ",
"                                  . > X ) 7X7X7X7X4Xy . * * * * = ; . :     ' . < .                 l.u.g.                      ",
"                                  . < . T.7X7X7X7X7X7X_ 4 9 9 9 0 4 P         . < . Q                                           ",
"                                / . < @ : '.7X7X7X7X7X[.+.3.3.3.-.v j.        u X : .                                           ",
"                                ( . < 1 X . S.7X7X7X7Xd.O.<.<.>.=.n u.          . 1 O X               `.                        ",
"                                  . < < 1 O . ( 8X7X].m :.:.:.<.:.D c           $ O 1 O . e ~ y.N.>X*X|.                        ",
"                                  . > < < < > . T }.&.@.<.:.:.:.>.-.N N         o.. < < < O . 6 d.%XE.E.W.OX                    ",
"                                  O : < < < = 2 m a.q.&.:.:.:.:.<.<.L c h.        i . 1 < < % j j.&X XOX|.OX                    ",
"                                  u o < < < - k t.$X8.@.:.:.:.:.:.>.=.N 7.          . X 1 < * j c.                              ",
"                                  ) . < < * q $.#XP.+.:.:.:.:.:.:.>.*.A B             . X 1 * h v.                              ",
"                                    . < , * v j.&X&.@.:.:.:.:.:.:.<.*.S N               . X - h v.                              ",
"                                    < O * 6 5.    +.:.:.:.:.:.:.:.<.*.S B                 X . j v.                              ",
"                                    ! . , m       +.:.:.:.:.:.:.:.<.*.S N                   3 4 v.                              ",
"                                      . j e.      ,.@.:.:.:.:.:.:.>.-.A L                     J f.                              ",
"                                      0 m         r.O.:.:.:.:.:.:.>.=.b y.                                                      ",
"                                      a.8.        j.O.:.:.:.:.:.:.<.=.c h.                                                      ",
"                                                    +.:.:.:.:.:.:.:.D b                                                         ",
"                                                    6.@.:.:.:.:.<.*.B L                                                         ",
"                                                    r.+.:.:.:.:.<.*.b u.                                                        ",
"                                                      O.:.:.:.:.>.=.c h.                                                        ",
"                                                      +.:.:.:.<.<.D n                                                           ",
"                                                      ,.@.:.:.>.*.A L                                                           ",
"                                                      q.+.:.<.<.D N 9.                                                          ",
"                                                      a.+.:.>.*.K b u.                                                          ",
"                                                      a.+.>.:.S K c i.                                                          ",
"                                                      q.+.*.D K L b u.                                                          ",
"                                                      7.M K K L L B 7.                                                          ",
"                                                      A A L L L L A B                                                           ",
"                                                      b L L L L L L v                                                           ",
"                                                    h.c L L L L L L c i.                                                        ",
"                                                    9.b L L L L L L b 9.                                                        ",
"                                                    S A L L L L L L A B                                                         ",
"                                                    v L L L L L L L L v                                                         ",
"                                                  g.c K K K K K K K K c i.                                                      ",
"                                                  7.V =.=.=.=.=.=.=.=.V -.                                                      ",
"                                                @.+.>.<.<.<.<.<.>.<.<.>.+.@.                                                    ",
"                                                q.#.,.,.,.,.,.,.,.,.,.,.#.q.                                                    "
};
