/* XPM */
static char *d057b288ae2c41c6d7d4039d7634783fvTjtV65rFHFoMBWd[] = {
/* columns rows colors chars-per-pixel */
"64 64 133 2 ",
"   c None",
".  c #A70003",
"X  c #AA0003",
"o  c #AB000E",
"O  c #AD0413",
"+  c #AF0917",
"@  c #AF0D1A",
"#  c #B30617",
"$  c #B90114",
"%  c #B30D1B",
"&  c #BC0D1E",
"*  c #B3101E",
"=  c #B51524",
"-  c #B91626",
";  c #B51826",
":  c #B91827",
">  c #B71B29",
",  c #BC1A2A",
"<  c #BB212F",
"1  c #BC2231",
"2  c #BC2A37",
"3  c #C5000F",
"4  c #C30115",
"5  c #C90012",
"6  c #CB031A",
"7  c #C70A1F",
"8  c #E2011F",
"9  c #C30D21",
"0  c #CD0B22",
"q  c #D00A22",
"w  c #DC0D27",
"e  c #C31426",
"r  c #C7172A",
"t  c #CF142A",
"y  c #C41A2C",
"u  c #CB1B2F",
"i  c #D1142A",
"p  c #CE1C31",
"a  c #D21E33",
"s  c #DC1D35",
"d  c #E30423",
"f  c #E30A26",
"g  c #E40E2A",
"h  c #E4122D",
"j  c #E51731",
"k  c #E51B34",
"l  c #E61E39",
"z  c #CF2136",
"x  c #C02C3A",
"c  c #D52136",
"v  c #D72439",
"b  c #DB253A",
"n  c #D4293D",
"m  c #DF283E",
"M  c #C2313F",
"N  c #E6243E",
"B  c #E3293E",
"V  c #E7313B",
"C  c #E73A3D",
"Z  c #D32C40",
"A  c #CC3746",
"S  c #D63246",
"D  c #D93D4F",
"F  c #E62640",
"G  c #EA2641",
"H  c #E72C44",
"J  c #E92E45",
"K  c #E73246",
"L  c #EA3047",
"P  c #E73A40",
"I  c #E83D44",
"U  c #E73348",
"Y  c #EB3148",
"T  c #E83C4C",
"R  c #E93D52",
"E  c #C7424D",
"W  c #C84652",
"Q  c #C74853",
"!  c #CB4B57",
"~  c #C84E58",
"^  c #D94656",
"/  c #CB515C",
"(  c #E84445",
")  c #E9444B",
"_  c #E94B4C",
"`  c #E94553",
"'  c #EA4D56",
"]  c #E6495C",
"[  c #EA495D",
"{  c #EA5153",
"}  c #EA5359",
"|  c #EB5A5D",
" . c #EC605F",
".. c #CF5D66",
"X. c #CF5F68",
"o. c #DC5362",
"O. c #EC4F62",
"+. c #EB5567",
"@. c #EC5F60",
"#. c #EC5A6C",
"$. c #EC5E70",
"%. c #DF606E",
"&. c #EC6262",
"*. c #EC6865",
"=. c #ED6A6A",
"-. c #ED6373",
";. c #ED6374",
":. c #EE6C7C",
">. c #EE7172",
",. c #EE7775",
"<. c #EF7B7A",
"1. c #EF7D7C",
"2. c #F08483",
"3. c #F08688",
"4. c #F18D8F",
"5. c #F19193",
"6. c #F2989B",
"7. c #F5ACA9",
"8. c #F5AEB0",
"9. c #F6B5B6",
"0. c #F8C6C7",
"q. c #F9CCCC",
"w. c #FAD3D4",
"e. c #FAD5D4",
"r. c #FAD6D7",
"t. c #FADBDB",
"y. c #FBDCDD",
"u. c #FCE5E6",
"i. c #FCE8E9",
"p. c #FDEFEF",
"a. c #FEF5F5",
"s. c #FEF9F9",
"d. c white",
/* pixels */
"                                                                                                                                ",
"                                                                                                                                ",
"                                                                                                                                ",
"                                                                                                                                ",
"                                                                                                                                ",
"                                                                                                                                ",
"                                                                                                                                ",
"                                                              O.]                                                               ",
"                                                              j w                                                               ",
"                                                            ` j j S                                                             ",
"                                                            g J U 6                                                             ",
"                                                          j N J U s 6                                                           ",
"                                                        R h K J H J 6 Z                                                         ",
"                                                      :.f K J J J H v 3 %.                                                      ",
"                                                      f H H J J J K m u 5                                                       ",
"                                                    k j H J F H J H H c 0 0                                                     ",
"                                                  R f T } | ' H H H U b p 6 n                                                   ",
"                                                ;.8 T | ( ( *.` F J H H a p 5 o.                                                ",
"                                                8 K _ { 6.4.| } H J J U m u a 5                                                 ",
"                                              h l P *.i.d.d.2.I H J J J H a p t 6                                               ",
"                                            J g V =.s.d.d.d.1.P N J J J K H p c 6 a                                             ",
"                                          #.d B | p.d.d.d.0._ T F J J H J Y v u c 5 ^                                           ",
"                                          d N ( e.d.d.d.d.>.( J H J J J J H H p a a 5                                           ",
"                                        j l V 7.d.d.d.d.9.( ' N J J J J J J K m u a i 7                                         ",
"                                      [ f V ,.d.d.d.d.a.} { T F J J J H H J J H a p c 6 A                                       ",
"                                      d U ( q.d.d.d.d.3.C | J H J J J H J J J U m u a c 3                                       ",
"                                    N k ( <.d.d.d.d.9.C @.' F J J J J J J J J J H c p a i e                                     ",
"                                  -.d ` ( 8.d.d.d.e.( { &.' N H J J J J J J J J K m p a c 4 /                                   ",
"                                  l H | _ t.d.d.u._ ) @.| | T N F N N H J J J J H H a p a a &                                   ",
"                                $.g }  .) w.d.y.{ _ *.| | | | ' ` ` T J N J J J J Y b p a c 4 Q                                 ",
"                                N K &.| { =.5.{ _ } ' | &.| | &.&.&.&.| T F J J J H H p a a i -                                 ",
"                                g } &.| @.' ( ' U H F J ' &.| | | | | &.&.T N J J J H c p a c $                                 ",
"                              ` N | | | | &.' F F H H F N ' &.| | | | | | &.K H J J K b p a a 9 2                               ",
"                              l T &.| | &.} F J H K H J F J | | | | | | | *.' N J J H m p a a u %                               ",
"                              g ` &.| | @.K G m c v H H J F ' &.| | | | | | | J H J H H p a a a #                               ",
"                            +.h ` *.| *.T G b u p u v H J N ` &.| | | | | | @.U F J H J a a a a % M                             ",
"                            R l U @.&.T G b u a a a p H H N T &.| | | | | | &.T F J H H c p a a - 1                             ",
"                            U B H K K G B u a a a a p H H F T &.| | | | | | &.) N J J H c p a a , ;                             ",
"                          R J H J H J H p p a a a a a H H F ` &.| | | | | | &.T F J J H v p a a , = ,                           ",
"                          U H H H Y J a p a a a a a a H H F ` &.| | | | | | &.T F J J H v p a a , = -                           ",
"                          m H H H H a p a a a a a p c H H F ' &.| | | | | | | K H J J H v p a a , = =                           ",
"                          z a c c p p a a a a a a p c H J F ' &.| | | | | &.' F J J J H c p a a - = :                           ",
"                            a u p a a a a a a a a p v H H H } @.| | | | | *.T F J J H H a p a p = :                             ",
"                            n t a a a a , , a a a p v H H H } &.| | | | &.} F H J J H H p a a y % ,                             ",
"                            D 0 a a a : = = u a a p v H J N ' *.| | | @.&.K F J J J Y m p a a y O M                             ",
"                              q c a , = - = y a a p c H J H K @.*.&.*.@.T N J J J H H a p a a : O                               ",
"                              r e : = - - = : a a a p H H J F U ' } ' K N J J J J Y b u a a y % =                               ",
"                              ~ . > - - - = = p a a p c Y H J F F H F H J J J H Y B p a a a : X !                               ",
"                                % # : - - - = u a a a p v H Y H H J J H H H Y H m p p a c y O *                                 ",
"                                  X = : - - = y a a a a p a m H J H H H H H m c p a a a p = X                                   ",
"                                  X.X : - - = : a a a a a p p p a c c c c a p p a a a a : . ..                                  ",
"                                    W X - : - = u c a a a a a a p p p p p a a a a a a - X E                                     ",
"                                      1 O = : = = a a a a a a a a a a a a a a a c p = o 1                                       ",
"                                          % % - = - p c a a a a a a a a a a c a y % +                                           ",
"                                            1 % % = = y a a a a a a a a a p y % O 1                                             ",
"                                                < % % * - y u p p p u y - % @ <                                                 ",
"                                                    M , = % * = = = % = > x                                                     ",
"                                                              : :                                                               ",
"                                                                                                                                ",
"                                                                                                                                ",
"                                                                                                                                ",
"                                                                                                                                ",
"                                                                                                                                ",
"                                                                                                                                "
};
