/* XPM */
static char *_b2f0a73f18b46fde46d32a42a0755a9hzxoPQrkOf3JEgHi[] = {
/* columns rows colors chars-per-pixel */
"64 64 205 2 ",
"   c None",
".  c #050102",
"X  c #080506",
"o  c #050709",
"O  c #100E0F",
"+  c #191618",
"@  c #1A1719",
"#  c #2C2B2B",
"$  c #2D2D2E",
"%  c #2B3738",
"&  c gray19",
"*  c #313131",
"=  c #323232",
"-  c #323333",
";  c #353334",
":  c #343434",
">  c #353535",
",  c #363535",
"<  c gray21",
"1  c #373737",
"2  c gray22",
"3  c #393939",
"4  c #3A3A3A",
"5  c gray23",
"6  c #3C3C3C",
"7  c gray24",
"8  c #3E3E3E",
"9  c #3F3F3F",
"0  c gray25",
"q  c #414141",
"w  c #414142",
"e  c gray26",
"r  c #434343",
"t  c #444444",
"y  c gray27",
"u  c #464646",
"i  c gray28",
"p  c #484848",
"a  c #494949",
"s  c gray29",
"d  c #4B4A4B",
"f  c #4B4B4B",
"g  c #4C4C4C",
"h  c gray30",
"j  c #4E4D4E",
"k  c #4E4E4E",
"l  c gray31",
"z  c #5B4E4E",
"x  c #505050",
"c  c gray32",
"v  c #535253",
"b  c #535353",
"n  c gray33",
"m  c #555555",
"M  c #565656",
"N  c gray34",
"B  c #585858",
"V  c gray35",
"C  c #5A5959",
"Z  c #5A5A5A",
"A  c #5B5B5B",
"S  c gray36",
"D  c #5D5D5D",
"F  c gray37",
"G  c #5F5F5F",
"H  c #606060",
"J  c gray38",
"K  c #626262",
"L  c gray39",
"P  c #646464",
"I  c #656565",
"U  c #666565",
"Y  c #666566",
"T  c gray40",
"R  c #676666",
"E  c #666767",
"W  c #676767",
"Q  c #686868",
"!  c DimGray",
"~  c #6A6A6A",
"^  c gray42",
"/  c #6C6B6C",
"(  c #6C6C6C",
")  c #6D6C6D",
"_  c #6D6D6D",
"`  c gray43",
"'  c #6F6F6F",
"]  c #6F7271",
"[  c gray44",
"{  c #717171",
"}  c #727272",
"|  c gray45",
" . c #747271",
".. c #747373",
"X. c #747474",
"o. c gray46",
"O. c #767676",
"+. c #777777",
"@. c gray47",
"#. c #797979",
"$. c #7A7A79",
"%. c gray48",
"&. c #7B7B7B",
"*. c #7D7C7B",
"=. c #7A7F7F",
"-. c #7C7C7C",
";. c gray49",
":. c #7E7E7E",
">. c gray50",
",. c #881C1C",
"<. c #AF0506",
"1. c #B50000",
"2. c #B50100",
"3. c #B70000",
"4. c #BC0000",
"5. c #B80506",
"6. c #B40B0C",
"7. c #B70E0D",
"8. c #B70E0E",
"9. c #BB0A09",
"0. c #BF0C0C",
"q. c #BF1615",
"w. c #C70000",
"e. c #C50C08",
"r. c #D21A16",
"t. c #D91918",
"y. c #C32321",
"u. c #C92521",
"i. c #CB3F3C",
"p. c #E32520",
"a. c #D7423D",
"s. c #975F5F",
"d. c #AA605F",
"f. c #927172",
"g. c #D2615D",
"h. c #DF6A65",
"j. c #ED7A75",
"k. c #678585",
"l. c #799898",
"z. c #73A7A7",
"x. c #808080",
"c. c #818180",
"v. c #818181",
"b. c gray51",
"n. c #838383",
"m. c #848484",
"M. c gray52",
"N. c #868686",
"B. c gray53",
"V. c #888888",
"C. c #898989",
"Z. c gray54",
"A. c #8B8B8B",
"S. c gray55",
"D. c #8D8D8D",
"F. c #8E8E8E",
"G. c gray56",
"H. c #909090",
"J. c gray57",
"K. c #929292",
"L. c #939393",
"P. c gray59",
"I. c #979797",
"U. c #989898",
"Y. c gray60",
"T. c #9D9D9D",
"R. c #A1A09D",
"E. c #A2A19E",
"W. c #A2A09F",
"Q. c #A2A19F",
"!. c #A5A5A5",
"~. c #B0AFAD",
"^. c #B8B4B2",
"/. c #BBB7B5",
"(. c #BCB9B7",
"). c #BCBBB9",
"_. c #BDBCBA",
"`. c #BDBDBA",
"'. c #BDBDBB",
"]. c #BEBDBB",
"[. c #C2C1C0",
"{. c #C4C4C1",
"}. c #C4C4C2",
"|. c #C8C5C2",
" X c #CAC9C7",
".X c #CBCAC8",
"XX c #CCCBC9",
"oX c #CDCCC9",
"OX c #CDCCCA",
"+X c #CFCECB",
"@X c #D0CFCC",
"#X c #D1CFCD",
"$X c #D1D0CE",
"%X c #D2D0CE",
"&X c #D2D1CF",
"*X c #CCD7D5",
"=X c #CADBDA",
"-X c #CDDAD9",
";X c #CCDDDA",
":X c #D3D2D0",
">X c #D3D7D5",
",X c #D0DAD8",
"<X c #E0DFDD",
"1X c #D3ECEA",
"2X c #E8E7E4",
/* pixels */
"                                                                                                                                ",
"                                                        |.[.                                                                    ",
"                                                        =X/.~.}.                                                                ",
"                                                          -X^.Q.].                                                              ",
"                                                      r.  1X,X(.Q.].                                                            ",
"                                                  q.y.8.4.g.*X>X).Q.].                                                          ",
"                                              h.e.9.<.6.1.t.  ;X&X).Q.].                                                        ",
"                                                a.8.5.w.,.f.    &X&X).Q.].                                                      ",
"                                                1.1.0.s.l.k.]     oX&X).Q.].                                                    ",
"                                              i.1.p.d.z.=. .E P.    XX&X).Q.].                                                  ",
"                                              u.j.  z % @ @ # v        X:X).Q.].                                                ",
"                                                    o . ; , O X         oX:X).Q.].                                              ",
"                                                    j Z c.c.G d           oX:X).Q.].                                            ",
"                                                    +.' E E ' }             oX:X).Q.].                                          ",
"                                                    +.Z E E G }               XX:X).Q.].                                        ",
"                                                    M.E ' / E c.                .X:X).Q.#X    G                                 ",
"                                                  G.} ~ } } ~ } G.                XX#X}.].#.= 9                                 ",
"                                          Z j i d ;.G.;.' ' ;.G.c.j i j n           <X2X .$ d                                   ",
"                                      n 9 0 d j 0 j ;.H.B.M.H.c.j 0 j d i 9 v         *.= 0 n                                   ",
"                                    ' , j j j j d Z v J ;.;.E v Z j j j j j , E     Z = i i i ' ;.                              ",
"                                    5 0 d j j 0 Z H.#.Z n n Z +.H.G 0 j j d 0 5     j ,     E #.} ~                             ",
"                                  J , E j 0 d i #.M.M.G.+.+.G.M.M.;.d d i j E 5 Z           ;.E #.' V.                          ",
"                                      T.#.Z , J G.c.c.c.#.#.c.c.;.G.E , n #.H.              ;.J j G G                           ",
"                                      c.M.M.~ ;.M.c.c.c.#.#.c.c.c.c.;.E c.V.+.U.        M.#.;.M.' 5 = Z                         ",
"                                      +.;.#.  H.#.c.c.c.#.#.c.c.c.;.V.  c.#.;.;.      M.#.#.c.      5 E                         ",
"                                    H.+.;.c.  H.#.c.c.c.#.#.c.c.c.#.M.    +.;.M.v Z M.;.#.M.                                    ",
"                                    V.;.+.H.    #.c.c.c.#.#.c.c.c.+.P.      ;.c.0 j c.#.M.                                      ",
"                                  i } G.c.      ;.;.c.c.#.#.c.c.c.#.        V.v 0 Z #.V.                                        ",
"                                G 5 d Z +.      c.c.c.c.#.#.c.c.;.;.          0 5 9 M.                                          ",
"                                n 9 d , Z       c.c.c.n.#.#.c.c.;.;.            Z                                               ",
"                                  G +.+.        c.c.c.c.#.#.c.c.;.;.                                                            ",
"                                  G.M.c.        V.V.V.V.;.;.V.V.M.M.                                                            ",
"                                    #.;.        ' ' ' } ~ ~ } ' ' ~                                                             ",
"                                    #.;.        0 0 0 0 i i 0 0 0 9                                                             ",
"                                    ;.;.        ' } } } Z Z } +.} ~                                                             ",
"                                    #.;.      !.;.V.V.M.J G M.V.V.;.P.                                                          ",
"                                    #.;.      ;.;.c.c.;.G G #.M.c.;.#.                                                          ",
"                                  H.+.#.      +.c.c.M.#.E E +.M.c.c.+.                                                          ",
"                                  ;.c.+.U.  H.;.M.M.V.} ~ ~ ' V.M.M.c.V.                                                        ",
"                                  ;.;.;.V.  Z J ~ ' ~ n +.+.n E ' ' E v                                                         ",
"                                  H.' G.      ~ J G G n     n G J J E                                                           ",
"                                    #.#.V.      c.c.;.G     G #.M.;.                                                            ",
"                                      c.c.      ;.c.#.G     J +.M.#.                                                            ",
"                                                ;.c.+.G     J } M.#.                                                            ",
"                                                ;.c.+.G     G } M.#.                                                            ",
"                                                ;.c.} J     J ' M.#.                                                            ",
"                                                c.M.' E     ~ ~ M.#.                                                            ",
"                                                M.H.} E     ' ~ H.V.                                                            ",
"                                              0 J +.G '     ' G +.E 5                                                           ",
"                                            , d 9 5 5 G     G 9 5 9 0 Z                                                         ",
"                                              9 Z ~ v ~     #.j ~ G ,                                                           ",
"                                                ;.H.E +.      J G.M.+.                                                          ",
"                                                ;.c.G         Z ;.;.                                                            ",
"                                                c.c.Z         Z ;.c.                                                            ",
"                                                c.c.G         G ;.c.                                                            ",
"                                                ;.;.G         G #.;.                                                            ",
"                                                ;.#.G         G +.;.                                                            ",
"                                                G.;.G         J #.H.                                                            ",
"                                                Z Z n         Z Z Z                                                             ",
"                                              U.E J Z         G G E G.                                                          ",
"                                          H.;.;.H.+.J         E } H.;.;.G.                                                      ",
"                                        ;.;.c.c.;.n E         ' v ;.c.c.;.#.                                                    ",
"                                      +.J E E E G Z             G G E E E J +.                                                  ",
"                                      ~ J                                 ~ J                                                   "
};
