/* XPM */
static char *c119c36a91b24a178f2569eea24953888MtpGcBqRIaxpN9A[] = {
/* columns rows colors chars-per-pixel */
"64 64 168 2 ",
"   c None",
".  c #060506",
"X  c #120E0F",
"o  c #18191A",
"O  c #1F2835",
"+  c #242223",
"@  c #292929",
"#  c #36322C",
"$  c #202C3E",
"%  c #2B303A",
"&  c #343434",
"*  c #36373A",
"=  c #3C3C3C",
"-  c #413B3B",
";  c #59401B",
":  c #4B453A",
">  c #494138",
",  c #594A35",
"<  c #674921",
"1  c #6A522D",
"2  c #7E5D2C",
"3  c #72562E",
"4  c #65563A",
"5  c #7B6135",
"6  c #1E2E4A",
"7  c #192840",
"8  c #202E45",
"9  c #253145",
"0  c #2E3645",
"q  c #323D4E",
"w  c #2C3A51",
"e  c #243553",
"r  c #323F52",
"t  c #3D414A",
"y  c #364356",
"u  c #35435A",
"i  c #3C485D",
"p  c #3A4456",
"a  c #444444",
"s  c #4C4C4C",
"d  c #4B4942",
"f  c #504E4F",
"g  c #595243",
"h  c #464D5A",
"j  c #444A54",
"k  c #4B515B",
"l  c #545454",
"z  c #5B5B5B",
"x  c #57575A",
"c  c #7C4C4C",
"v  c #60605F",
"b  c #4A5362",
"n  c #555B64",
"m  c #5D6065",
"M  c #636363",
"N  c #6C6C6C",
"B  c #676B6B",
"V  c #6A7779",
"C  c #747474",
"Z  c #7B7B7B",
"A  c #76787B",
"S  c #AB0101",
"D  c #B40000",
"F  c #BE0101",
"G  c #BF100E",
"H  c #B31010",
"J  c #BD1313",
"K  c #B9201F",
"L  c #B4302F",
"P  c #C30303",
"I  c #C80000",
"U  c #C0120F",
"Y  c #C41B19",
"T  c #C81B18",
"R  c #CB2926",
"E  c #8B611F",
"W  c #95661F",
"Q  c #AD6D0E",
"!  c #BA7505",
"~  c #A16B15",
"^  c #A5741E",
"/  c #B27D1E",
"(  c #835E27",
")  c #896023",
"_  c #85672E",
"`  c #C47602",
"'  c #C27F07",
"]  c #D37E00",
"[  c #8C7B5C",
"{  c #996A69",
"}  c #D54945",
"|  c #D5524F",
" . c #D45B57",
".. c #F0504B",
"X. c #E17670",
"o. c #DC8400",
"O. c #DF8C00",
"+. c #D68A06",
"@. c #CF8B1D",
"#. c #D18A11",
"$. c #EA8700",
"%. c #E58E00",
"&. c #EC8B00",
"*. c #E48700",
"=. c #E59301",
"-. c #E99502",
";. c #EC9901",
":. c #E79308",
">. c #FF9500",
",. c #F29A00",
"<. c #FC9A00",
"1. c #F59700",
"2. c #E19612",
"3. c #FFA200",
"4. c #E8A01F",
"5. c #F5AD2A",
"6. c #A79678",
"7. c #DBAF5E",
"8. c #E3AB43",
"9. c #DCB56E",
"0. c #787E87",
"q. c #7B8390",
"w. c #669090",
"e. c #838383",
"r. c #8B8B8B",
"t. c #858B8B",
"y. c #8D8F92",
"u. c #939393",
"i. c #9A9A9A",
"p. c #A19B8B",
"a. c #86ABAA",
"s. c #A6A6A4",
"d. c #ACAAA7",
"f. c #A2A6AD",
"g. c #AAAAAA",
"h. c #A9A7A6",
"j. c #B4B2AE",
"k. c #A0AABB",
"l. c #BCBAB6",
"z. c #B7B6B3",
"x. c #D2BA8F",
"c. c #D2BD9A",
"v. c #DDC393",
"b. c #C3C2BE",
"n. c #C8C3BA",
"m. c #E2CFAE",
"M. c #E5D1AD",
"N. c #A5B3CB",
"B. c #A9BAD9",
"V. c #BCC3D2",
"C. c #B2C1DD",
"Z. c #C5C4C2",
"A. c #CAC9C6",
"S. c #CECDCB",
"D. c #C1C6CE",
"F. c #D0CECD",
"G. c #D2D1CF",
"H. c #CACED4",
"J. c #CBD0DA",
"K. c #D5D4D2",
"L. c #DBDAD9",
"P. c #D0D6DE",
"I. c #E1E0DE",
"U. c #CFDAEC",
"Y. c #D6DDE8",
"T. c #CBDAF6",
"R. c #E4E3E1",
"E. c #E7E8EA",
/* pixels */
"                                                          }                                                                     ",
"                                                      | } U G X.                                                                ",
"                                                    P D D H D I                                                                 ",
"                                                  | R U H P S L                                                                 ",
"                                                    R S F J c V                                                                 ",
"                                                   .S I K t.a.e.B                                                               ",
"                                                  Y T ..{ w.M M z Z                                                             ",
"                                                  T     - o . . o +                                                             ",
"                                                        . X a f + .                                                             ",
"                                                        x M e.t.C s                                                             ",
"                                                        C N M M B M                                                             ",
"                                                        A z M B z z                                                             ",
"                                                        r.B N M B C                                                             ",
"                                                      u.N B C C B B t.                                                          ",
"                                              M x s l e.r.Z N B C t.r.M a l z A                                                 ",
"                                          l * = a s a z r.r.e.e.r.r.C a a a a * a                                               ",
"                                        s * s s s s s s l C r.r.Z z s s s s s s a &                                             ",
"                                      A & s s s s a l r.M l x z l x t.N a s s s s * s                                           ",
"                                      a * s a s s a A r.r.e.M z Z r.r.e.l a s a s s @                                           ",
"                                      l e.Z x a = z r.e.Z t.e.Z t.[ Z r.C a a s N t.l N           S.G.Z.A.                      ",
"                                        g.Z r.M a Z t.Z e.e.Z A e.e.e.e.r.z x t.r.i.          S.G.S.z.l.                        ",
"                                        t.Z Z r.  e.Z 6.e.e.Z A e.e.e.r.Z r.y.A A C       S.F.G.Z.d.j.                          ",
"                                        Z Z A u.  q.Z 6.e.e.Z A e.t.r.C j i h p t # l g.K.K.A.j.g.b.L.                          ",
"                                        C e.C     r.A [ e.e.Z A t.e.M w t ^ ' ! ! 6.H.R.S.l.s.N.V.q.M                           ",
"                                      N t.t.t.    i.A e.e.e.Z A r.v 0 g +.<.>.5.M.E.L.b.d.k.C.v.@.; O x                         ",
"                                    x = v l N       A 6.q.e.Z Z t.j d :.>.2.x.T.U.A.j.f.B.n.8.&.$.] 4 q                         ",
"                                    s a = * l       A e.[ e.Z Z e.y < <.7.J.T.F.l.s.N.V.9.-.$.-.=.o.2 w                         ",
"                                    Z @ z Z M       A Z e.t.Z Z N % [ m.T.P.b.d.k.C.c.4.&.%.=.=.=.o.( r                         ",
"                                        Z r.A B     A e.Z A Z B e.s.Y.U.A.j.f.B.n.8.&.&.=.=.=.=.-.o.) q                         ",
"                                        i.C r.x     e.r.l * C g.K.E.G.l.s.N.V.9.-.$.=.=.=.=.=.=.-.o.E q                         ",
"                                          Z Z A N   C A l * x R.I.b.d.k.C.c.4.&.%.=.=.=.=.=.=.=.-.o.) r                         ",
"                                            N r.C x a a s s * r.S.d.D.n.8.&.&.=.=.=.=.=.=.=.=.=.=.o.( w                         ",
"                                            t.Z t.z x M s s a = h.J.p.:.&.=.=.=.=.=.=.=.=.=.=.-.=.] 3 u                         ",
"                                              A e.e.C x s a s * A 0.# o.,.=.=.=.=.=.=.=.=.=.=.;.O.` , b                         ",
"                                              i.C t.Z z s z x s a a y / 3.=.=.=.=.=.=.=.=.=.=.;.O.Q * V                         ",
"                                              Z e.t.r.v M t.B l s B u 5 3.=.=.=.=.=.=.=.=.=.=.=.o.) 9                           ",
"                                          M a a Z Z B M t.e.N N B i.n q #.3.=.=.=.=.=.=.=.=.;.%.` > k                           ",
"                                        M s B * l M M Z e.M N Z x e.C w 4 3.,.=.=.=.=.=.=.-.-.o.2 7                             ",
"                                          s z N M x M z l s e.  l l z l e _ 3.,.=.=.=.=.;.,.*.W $ m                             ",
"                                                    N N C l     M M A Z x 6 _ ,.3.,.-.,.<.o.) 9 j                               ",
"                                                    Z r.e.x     M N r.r.r.B 6 : / =.1.o.~ , 8 k                                 ",
"                                                    Z e.Z x     B M t.Z r.    i 6 > 1 > 9 y                                     ",
"                                                    Z e.Z x     N M t.Z r.        n i n                                         ",
"                                                    Z t.A z     Z z t.Z r.                                                      ",
"                                                    Z t.C z     A x t.Z r.                                                      ",
"                                                    Z t.N M     A z t.Z u.                                                      ",
"                                                  t.e.u.C M       x r.r.Z                                                       ",
"                                                Z * M A M B       l A C a l                                                     ",
"                                                l = = * = l     C * = * a =                                                     ",
"                                                M & x M s N       s z z a a                                                     ",
"                                                  M Z r.M A       z e.r.B                                                       ",
"                                                    Z e.x Z       x A 6.r.                                                      ",
"                                                    Z e.l         x A e.t.                                                      ",
"                                                    Z e.l         z C Z r.                                                      ",
"                                                    Z Z l         M B Z r.                                                      ",
"                                                    Z Z x         B B Z r.                                                      ",
"                                                    Z Z x         N M e.r.                                                      ",
"                                                    Z C x         N z Z t.                                                      ",
"                                                    l l l         C a x M                                                       ",
"                                                  t.Z N z         Z x Z Z                                                       ",
"                                              e.Z Z r.N z           x r.t.Z Z u.                                                ",
"                                          u.A Z Z Z C a C           a M Z Z Z Z Z                                               ",
"                                          x z M M M M B             t.x M M M M l e.                                            ",
"                                          M                                     B                                               "
};
