/* XPM */
static char *_80af95a208b4ce8d029edfeb7fc6c413SZbQ7IKBDbxToPK[] = {
/* columns rows colors chars-per-pixel */
"64 64 246 2 ",
"   c #010101",
".  c #010D0C",
"X  c #0D0C0A",
"o  c #090705",
"O  c #110E0C",
"+  c #140403",
"@  c #00110F",
"#  c #0C110E",
"$  c #13110E",
"%  c #18140E",
"&  c #011412",
"*  c #0A1714",
"=  c #151412",
"-  c #191514",
";  c #1A1916",
":  c #1D1C1A",
">  c #290807",
",  c #360201",
"<  c #211E1C",
"1  c #38120F",
"2  c #21201E",
"3  c #28251A",
"4  c #32271D",
"5  c #262524",
"6  c #2B2B29",
"7  c #353635",
"8  c #303228",
"9  c #1B251E",
"0  c #4B0000",
"q  c #450B0A",
"w  c #590000",
"e  c #49120E",
"r  c #4A1311",
"t  c #531112",
"y  c #660303",
"u  c #730000",
"i  c #7B0002",
"p  c #7E040C",
"a  c #6E1414",
"s  c #482B08",
"d  c #713B31",
"f  c #493A29",
"g  c #3B433F",
"h  c #534A3B",
"j  c #715439",
"k  c #594909",
"l  c #343E43",
"z  c #3A4447",
"x  c #50514F",
"c  c #6D554D",
"v  c #736B51",
"b  c #5B6968",
"n  c #6D7773",
"m  c #54615E",
"M  c #860305",
"N  c #970404",
"B  c #89110D",
"V  c #860B12",
"C  c #8C131B",
"Z  c #871318",
"A  c #981314",
"S  c #9C110B",
"D  c #A30201",
"F  c #AA0805",
"G  c #B50000",
"H  c #AC120E",
"J  c #A4120E",
"K  c #B2120D",
"L  c #BE120D",
"P  c #A61512",
"I  c #B31915",
"U  c #B8381D",
"Y  c #AF2518",
"T  c #A83630",
"R  c #8F3B28",
"E  c #C70101",
"W  c #C6120D",
"Q  c #D21312",
"!  c #D6342D",
"~  c #B95714",
"^  c #BF5E15",
"/  c #B8510B",
"(  c #88543A",
")  c #B04B36",
"_  c #A0632D",
"`  c #C7580C",
"'  c #CA6718",
"]  c #CE6919",
"[  c #C86516",
"{  c #D56D1B",
"}  c #D46413",
"|  c #D1640F",
" . c #C84E36",
".. c #C46C26",
"X. c #C56F2C",
"o. c #D16B22",
"O. c #D8792B",
"+. c #ED7924",
"@. c #ED7928",
"#. c #EE7C30",
"$. c #87584E",
"%. c #B85649",
"&. c #8E704F",
"*. c #B2714A",
"=. c #AF7B77",
"-. c #D15A49",
";. c #D27148",
":. c #E57049",
">. c #CC7069",
",. c #52857E",
"<. c #6B817B",
"1. c #DC9E2C",
"2. c #DE943B",
"3. c #DE9134",
"4. c #DA872E",
"5. c #E5862B",
"6. c #F2832B",
"7. c #F08027",
"8. c #F2873D",
"9. c #F28A3C",
"0. c #F28435",
"q. c #F59D3A",
"w. c #F39834",
"e. c #F2932F",
"r. c #FCBA2E",
"t. c #FCBC34",
"y. c #FCBF3A",
"u. c #F7BB3C",
"i. c #F1A33C",
"p. c #DCA032",
"a. c #FFCD3D",
"s. c #FCC03D",
"d. c #998A58",
"f. c #B19456",
"g. c #A99561",
"h. c #D7874D",
"j. c #DA9659",
"k. c #CF8B50",
"l. c #F38F41",
"z. c #F39143",
"x. c #F49B46",
"c. c #E78855",
"v. c #E99459",
"b. c #F49356",
"n. c #EE8E53",
"m. c #D4AA51",
"M. c #F6A14A",
"N. c #F8A44C",
"B. c #F5BE47",
"V. c #ECAB56",
"C. c #D1926A",
"Z. c #ED9563",
"A. c #D6B66B",
"S. c #EDAB73",
"D. c #FFCE42",
"F. c #FCC64D",
"G. c #FBC448",
"H. c #FCC751",
"J. c #FCC954",
"K. c #F8C85B",
"L. c #FFD35B",
"P. c #FFD156",
"I. c #EDC15B",
"U. c #EDC365",
"Y. c #ECC66D",
"T. c #FCCD62",
"R. c #F3C767",
"E. c #FCD16A",
"W. c #FDD86E",
"Q. c #FCD565",
"!. c #EFC871",
"~. c #EBC97B",
"^. c #F1CA73",
"/. c #F0CD7F",
"(. c #FEDC72",
"). c #FAD572",
"_. c #EFD16E",
"`. c #FFE073",
"'. c #789D94",
"]. c #728F88",
"[. c #7AA59A",
"{. c #6DA298",
"}. c #7B9AA5",
"|. c #64B8AD",
" X c #5AC1B6",
".X c #6ACFC3",
"XX c #81938D",
"oX c #859893",
"OX c #8F918D",
"+X c #AA9A92",
"@X c #88A49D",
"#X c #A3A19E",
"$X c #BEA392",
"%X c #84AAA2",
"&X c #95B4AC",
"*X c #AAA9A7",
"=X c #A1BBB4",
"-X c #BEBCBA",
";X c #B6B5B3",
":X c #A9ABAA",
">X c #CDAF91",
",X c #C1BEBC",
"<X c #CFBBBB",
"1X c #CCA4A9",
"2X c #EC9592",
"3X c #A9C5BD",
"4X c #B9C0AE",
"5X c #CFC995",
"6X c #F0CE82",
"7X c #F2D084",
"8X c #F8D98B",
"9X c #EDCF84",
"0X c #C3C1BE",
"qX c #D0D1BA",
"wX c #9BBEC8",
"eX c #ACCAC3",
"rX c #A7C4C3",
"tX c #B3CCC7",
"yX c #B4D3CC",
"uX c #BADBD3",
"iX c #ACD8D2",
"pX c #A4E1DA",
"aX c #C6C4C2",
"sX c #C9C6C4",
"dX c #CBC9C6",
"fX c #CDCBC8",
"gX c #CFCDCA",
"hX c #CECCCA",
"jX c #C7C8C8",
"kX c #D0CECC",
"lX c #D0CCC7",
"zX c #D2D1CE",
"xX c #DED0CB",
"cX c #D6D5D3",
"vX c #D7D6D4",
"bX c #D5D4D2",
"nX c #D8D7D5",
"mX c #D9D8D6",
"MX c #DBDAD9",
"NX c #C4DBD4",
"BX c #C3E6DC",
"VX c #C8EAE3",
"CX c #D8FCF5",
"ZX c #D4EFEB",
"AX c #FFFEFD",
"SX c #E9F3F2",
/* pixels */
",X,X,X,X,X,X,X,X,X-XfXbXkXgXgXkXkXkX#Xb OXgXgXfXgXgXgXgXgXgXgXsXfXgXgXgXgXkXkXgXgXOXm #XdXfXfXfXfXfXfXfXaXsXkXgXkXkXkXkXkXgXkXsX",
"sXsXsXsXsXsXsXsXdX0XaXmXcXvXvXvXvX*X6     -XmXmXcX;X:X-XvXnXmXgXzXmX-X*X;XbXvXvXfX    6 *XmXmXmXmXmXmXMXgXfXmXcXcXcXcXcXcXcXmXdX",
"aXaXaXaXaXaXaXaXaX-XgXmXvXvXvXvX:X  o #Xn gXnX#X7 - = = 7 -XmXkX-X7 - - = 7 #XcXzXn #Xo   *XvXvXvXcXvXmXfXfXmXcXcXcXcXcXcXcXmXsX",
"sXsXsXsXsXdXaXaXaX0XfXzXgXfXdXdX$ o O dXdX-Xx X ; ; X O O o dXsX  ; = O - - X x -XdXsX= o = fXgXkXkXgXkXdXaXfXfXfXfXkXkXgXfXdXaX",
"bXbXbXbXcXgXdXkXgXkXgXdX!.u.B.f.  : ; 7 h ; - ; $ : 2 < :   v v   5 < 2 : $ = = : h 8 : :   f.B.B.B.B.Y.zXzXgXkXkXzXgXfXzXkXgXbX",
"nXnXmXvXmXgXfXcXbXbXbXzXR.G.J.f.  6 : - = : ; < 5 : ; ; 2 5 o o 5 2 ; ; : 5 5 ; : O ; : 6   g.T.T.T.J.R.nXvXvXvXvXmXzXgXvXvXvXvX",
"bXzXzXcXnXgXdXzXkXkXkXkXU.J.F.m.  - 5 2 % O 5 : X X O O o 2 ; ; 5 o X O X X ; 5 = = 2 5 ;   A.T.T.E.).^.zXbXbXbXbXvXkXdXbXcXbXbX",
"aX0X,XaXdXdXsXsXsXsXsXsXU.F.t.t.;   O X n 7   $ $ $ $ % =   7 7   = $ $ $ $ $   7 n X $   % F.F.G.H.E.!.dXdXdXdXsXfXkXfXgXkXgXgX",
"dXdXdXaXgXzXzXzXkXkXzXzXR.H.s.t.m.  o   XXeXo   = $ $ = o   XX@X  o = = $ =     3XoX  o   A.J.J.H.J.E.^.zXzXzXbXdXgXnXcXcXcXcXcX",
"fXfXfXdXzXbXbXbXbXbXbXcXR.H.y.t.K.f.    n ZXoX  o O       b VXVXn       O o   XXZXn     g.R.W.F.H.J.E.^.zXbXcXvXkXcXMXmXmXmXmXmX",
"dXdXsXaXsXdXdXdXdXfXdXaXU.H.y.y.P.e.*.  b eXuX<.    6 n &XCXyXyXCX=Xn 8     <.uXeXb   k.0.x.W.J.H.J.E.^.kXkXgXfXaX0XfXkXkXgXdXkX",
"kXkXkXzXgXgXgXgXkXgX-X-XU.H.y.t.P.w.#.n.+X%X&XoX6 =Xm =XVX@XuXuX@XVX=Xm 3X6 XX&X%X+Xn.l.8.M.W.J.H.J.E.^.dXsXdXdXsXaXsXdXdXdXsX0X",
"vXvXvXvXvXnXvXnXmXbX,XsXU.H.y.t.P.w.0.z.>X@X{.<.&XSX:   }.].&X&X].}.  ; CX=X<.[.'.>Xl.z.8.M.W.J.H.J.E.^.kXfXbXzXbXbXbXzXzXbXcXsX",
"cXvXnXnXnXvXvXvXmXcXaXsXU.H.y.t.P.w.0.z.>X@X].%XuXVXz   s b tXeXb s   z VXuX%X].@X>Xl.z.8.M.W.J.H.J.E.^.dXsXgXzXkXgXkXkXgXgXgXaX",
"fXkXdXsXsXaXaXaXsXsXsX0XU.H.y.y.P.e.0.z.>X@X].[.yXNXrXv k l CXCXl k v rXuXyX[.].@X>Xl.z.8.M.W.J.H.J.E.!.sXsXsXdXfXsXsXdXdXsXaXsX",
"zXfX,XaXaXaXaXaXaXaXaX0XU.H.s.t.P.w.0.z.v.4X=X&XyXeXNXVXwX=XXXoX=XwXVXNXeXyX&X=X4Xv.l.z.8.M.W.J.H.J.E.^.zXcXkXaXgXkXkXkXkXkXzXzX",
"cXgX0XsXsXsXsXsXdXdXdXsXU.H.t.y.(.q.#.z.l.j.c b yXyXtXyXVXg     z VXyXtXyXyXb c j.l.l.z.8.M.W.J.H.J.E.^.cXvXkXaXbXbXzXbXzXzXzXzX",
"kXfX0XaXaXaXaXsX0X0XaXaXU.G.G.J.(.q.@.j.j ; O 7 uXuXtXtXVX@X    @XVXtXtXuXuX7 O < j j.z.8.M.W.J.H.J.E.^.dXfXsXaXdXdXdXdXfXkXgXfX",
"kXkXkXkXkXkXkXfXgXkXkXkXU.J.R.d.3 ( #.*.    : : oXCXVXVXVXZXeX3XZXBXVXVXCXoX< <     *.v.( 3 d.K.H.J.E.^.gXgXfXkXkXgXkXkXfXgXzXkX",
"vXvXvXvXvXvXmXgXbXmXnXvX~.g.&   +     j &.h % o = n %XoX].@XyXyX%X].oX%Xn ; o O f &.j     +   & d.I.E.^.nXnXnXvXvXvXvXmXzXgXmXvX",
"vXvXvXmXmXvXcXzXvXmXbXOX*   y t a t e , . 8 9 O o   . .   g [.%Xx   # .   o O * 6 . , r t a t y   * g.^.xXnXmXnXmXvXcXcXgXkXvXcX",
"fXgXgXdXgXgXdXfXbX*X    , A Q r a B r W Z q > = # . 0 $.,.].[.[.].,.$.0 . # = > q Z W r B Z r Q A ,     +X2XfXaXsXfXfXdXdXdXdXdX",
"zXzXcXaXfXbXzXzXzX*XXX<X-.G S 1 A W 1 B Q Q a = # & i >..X%X'.'.[..XC.i . # # Z W W B 1 W J 1 S E :.!.g.+X1XaX0X-XdXcXbXbXbXzXzX",
"nXnXmXfXzXmXmXnXnXmXnXmX7XZ.w , G G u r K e & # $ @ 0 %. X'.'.'.'. X%.0 @ % @ # J Q , y G G , w ;.7X8X9XqXsXfXdXaXgXmXnXnXnXnXnX",
"zXzXzXsXgXzXgXgXkXgXkXkX6XT.r R S.v.#.e . @ = O   #   B +X X{.{. X+XB   # $ % @ e M q :.c.c.( j R.iXZXZXCXtX4XaXaXfXbXkXkXkXzXkX",
"dXdXdXdXfXfXfXfXfXfXfXdX6XT.I.J.(.q.;.o . -     : = & + B =.+X+X=.A + & O   O = X + n.l.l.N.W.K.U.+X1X1X1X*X0X0XaXaXdXfXfXfXfXfX",
"bXbXbXbXzXnXmXvXnXnXnXnX7XT.J.J.(.j.  o =   X *XSXo o &   0 a a 0   & O 3 ( o %   j +.+.+.w.(.J.Y.>.Q E E a jXfXhXsXzXmXnXnXvXvX",
"bXbXbXzXkXcXnXcXvXvXvXcX7XT.J.J.(.4   =   g SXAXAXx   = # .     . # -   j ' 4     4 ' ' ` 4.(.J.J.>.E E M $.hXfXfXsXzXmXvXvXnXmX",
"dXdXfXdXdXdXdXdXdXgXfXgX6XT.J.F.~.  X   x AXAXAXAXSX2   & & @ @ @ &   3 !.R.g.  $   A.R.R.E.W.F.H.!.>.%.=.gXkXkXgXfXgXkXkXzXgXdX",
"zXzXzXzXzXzXzXcXdXfXbXzX6XT.J.H.m.  $   #XAXAXAXAXAXAXc , e e e 1 > $.Q.L.L.U.  $   v L.L.Q.J.P.J.J.E.5XkXbXbXbXzXbXzXzXbXzXaXaX",
"vXvXvXvXvXvXvXmXgXkXmXnX7XT.J.H.d.  $ o o ;XAXAXAXAXAX2XD L L W A i v.F.F.F.F.8   O   A.P.i.O.5.F.P.E.5XnXmXmXmXmXmXmXmXmXnXdXfX",
"cXbXbXbXbXbXbXcXzXgXkXzX6XT.J.H.d.  $ =     OXAXAXAXAX-.N H K K A i %.J.J.J.J.f.  =     f.` / / O.L.W.5XgXkXkXgXgXgXgXgXkXkXsXsX",
"aXaXaXaXaXaXaXaXaXdXfXdX6XT.J.H.f.  $ $ = o   x SXAX2XN H H H H H C i j.J.J.J.J.o   = o   3 h ) ;.qXqX3X-X0X0X,X,X,X-X0X0X,XdXkX",
"sXsXsXsXsXsXsXdX0XfXvXbX6XT.J.H.m.  O $ $ = %   d 2XF D H H H H K P p M K.J.J.J.f.  % = $ o   0 -.pX%X@X=XeXfXsXsXsXsXsXdXaXdXmX",
"dXdXdXdXdXdXdXfXaXgXnXcX7XT.J.H.I.o X $ $ % & * M %.T F H H H H H H C u k.H.H.H.H.f   = $ $ . w >.pXeXeX3XeXsXsXdXdXdXdXfXaXsXmX",
"aXaX,X,X,X-X,X0X,XaXsXaX6XT.J.H.F.8   $ $ $ & y  .iXY F H H H H H K A i T J.J.J.J.I.    = $ @ w c._./.9XsXsXfXaX0XaXaXaXaXaX0X0X",
"gXaX,XaXaXaXaXaXaXaXaX0X~.T.J.F.T.&.  = % @ > G uX$XD H H H H H H K J V V ^.W.W.W.W.~.    = @ 0 b.J.E.^.zXzXgX0XaXaXaXaXaXaXaX0X",
"cXsXaXdXsXdXdXdXdXsXsXaX~.T.J.J.(.j.  $ # & i >.uXF F H H H H H H K P C M v.x.x.x.x.x.j.    & 0 b.J.E.^.zXcXgX0XdXsXsXsXsXsXsXdX",
"gX,X,XsXsXaXaXaXsXsXdXdX/.T.J.J.(.w.% o @ , E b.n.D H H H H H H H H J C M h.8.8.8.8.8.8.h.    w b.J.E.^.zXvXgX0XfXdXdXdXdXdXdXdX",
"sXsXdXkXkXkXgXgXkXkXfXkX6XT.J.J.(.q.j   & M Z.l.n.D H H H H H H H K J C M n.l.l.l.l.l.z.8.V.; > b.J.E.!.sXgXdXaXaXaXaXsXaXaXsXaX",
"dXMXvXvXvXvXvXvXvXmXfXdX6XT.J.J.(.q.h.  w ! l.l.z.I F H H H H H H K J V C z.l.l.l.l.l.z.8.M.).d :.J.E.^.gXsXdXdXdXdXdXdXdXdXdXdX",
"dXMXmXvXnXnXnXnXnXmXgXfX7XT.J.J.(.q.0.r N b.l.l.l. .N H H H H H H K A i %.l.l.l.l.l.l.z.8.M.W.J.V.J.E.^.zXfXfXfXfXgXgXgXgXgXgXgX",
"sXkXkXkXfXgXgXgXgXkXdXsX/.T.J.J.(.q.0.-.Y l.l.l.l.:.N H H H H H H K A u ;.l.l.l.l.l.l.z.8.M.W.J.H.J.E.^.dXsXsXsXfXaX,XaXaX0X,X0X",
"0X,X,XdXzXkXkXgXgXgXzXkX6XT.J.J.(.q.#.b.b.l.l.l.l.n.D H H H H H H H C i v.l.l.l.l.l.l.z.8.M.W.J.H.J.E.^.kXkXkXkXgX,X-X,X,X,X-X,X",
"sXsX,XdXmXvXvXvXvXvXvXvX7XT.J.J.(.q.@.z.z.l.l.l.l.z.I F H H H H K J V C z.l.l.l.l.l.l.z.8.M.W.J.H.J.E.^.cXvXvXmXgXaXsXsXsXsXsXsX",
"aXaX0XaXcXbXbXbXcXcXbXbX7XT.J.J.(.q.+.z.z.l.l.l.l.l. .D H H H H K J i ) l.z.l.l.l.l.l.z.8.M.W.J.H.J.E.^.zXzXkXkXdXaXaXaXaXaXsXaX",
"dXdXdXdXdXfXfXfXsXdXfXkX6XT.J.J.(.q.+.9.z.l.l.l.l.z.c.N H H H H K A u ;.9.z.l.l.l.l.l.z.8.M.W.J.H.J.E.!.lXdXdXaXsXdXdXdXdXaXdXgX",
"cXcXcXcXcXbXbXvXsXgXvXcX7XT.J.J.(.q.+.6.z.l.l.l.l.z.n.D H H H H H C i #.6.z.l.l.l.l.l.z.8.M.W.J.H.J.E.!.cXvXvXvXvXvXvXvXmXgXdXmX",
"vXvXvXvXvXvXvXmXdXkXmXmX7XT.J.J.(.q.@.6.9.z.l.l.z.l.z.I F H H K J V C #.7.9.z.l.z.z.z.z.8.M.W.J.H.J.E.!.nXvXvXvXvXvXvXvXmXzXgXmX",
"gXgXgXgXgXgXkXkXsXgXkXfX6XT.J.J.(.q.@.6.6.9.z.l.l.z.z. .D H H K A p ) @.7.7.9.z.z.z.l.z.8.M.W.J.H.J.E.!.zXzXkXkXzXzXzXzXbXfXsXkX",
"gXgXkXgXkXkXfXaXzXzXkXgX6XT.J.J.(.q.@.6.6.6.9.z.l.l.z.-.D H K J C i %.+.6.7.7.l.z.l.l.z.8.M.W.J.H.J.E.^.fXgXfXgXgXgXgXkXsX0XaXaX",
"vXvXvXvXvXnXvXdXcXvXvXcX7XT.J.J.(.q.@.6.6.7.6.9.z.z.l.-.D K H C C i ;.@.6.6.7.6.9.z.z.z.8.M.W.J.H.J.E.^.zXcXbXbXbXbXbXmXgXaXgXfX",
"bXcXcXvXnXnXbXdXvXnXnXnX7XT.J.J.(.q.@.6.6.6.6.6.0.l.z. .D J C C C i %.+.6.6.6.6.7.0.9.z.l.M.W.J.H.J.E.^.nXvXnXnXnXcXbXcXfXaXfXfX",
"gXfXfXdXfXfXsXdXgXgXgXgX/.T.J.J.(.q.@.6.6.6.6.6.6.6.0.T M C C C C M T @.6.6.6.6.6.6.6.0.0.N.W.J.H.J.E.!.sXsXsXsXaXsXgXdXdXsXsXsX",
"bXbXcXaXsXgXgXkXgXgXgXgXU.J.G.F.(.5.` } } } } } } } o.V V C C C C V V o.} } } } } } } } ` 5.(.J.H.J.E.!.0XaXaXsX-XsXvXzXbXbXbXbX",
"vXvXmXdXgXvXbXbXbXbXbXzXR.F.t.t.Q.i.4.3.2.2.2.2.2.2.j.i C C C C C C i h.2.2.2.2.2.2.2.2.4.V.(.J.H.J.E.!.dXfXgXgX0XgXMXnXnXvXmXmX",
"zXzXzXaXaXgXfXgXgXfXfXfXU.H.s.t.G.P.L.P.L.L.L.Q.W.W.C.i C C C C C C i C.(.(.(.(.(.(.(.(.`.(.T.J.J.J.E.!.sXdXsXsX,XdXbXzXzXbXkXkX",
"dXdXsXsXaXaXsXsX0XaXsXdXU.F.y.t.t.r.r.r.r.r.r.r.r.r.) M C C C C C C M ) G.F.F.F.F.F.F.F.F.F.F.J.H.J.T.Y.0X0X0X,X0XaX,X0XaX0X0X0X",
"kXkXkXzXzXzXbXgXaXbXbXbX).L.D.a.a.a.a.a.a.a.a.a.a.D.Z V C C C C C C V V G.a.a.a.D.D.D.D.D.D.a.a.a.D.L.R.fXfXfXfXfXjXjXjXjXaXdXgX",
"zXzXzXzXzXzXzXkXsXdX>X>Xm.m.p.1.1.1.1.1.1.1.1.1.1.k.i C C C C C C C C i k.1.1.1.1.1.1.1.1.1.1.1.1.1.m.m.$X$X,XsXsXsXsXsXsXaXsXfX",
"fXfXgXgXgXgXfXdXsX>X/ ^ ~ ~ ~ ~ ~ ~ ~ ~ ~ ~ ~ ~ ~ %.u C C Z Z C Z C C u ) ~ ~ ~ ~ ~ ~ ~ ~ ~ ~ ~ ~ ~ ~ ~ ^ / >XsXsXsXaXaXaXaXdXgX",
"zXzXzXzXzXzXbXfXdXh.| { { { { { { { { { { { { { ;.Y N A A A A A A A A N P ;.{ { { { { { { { { { { { { { { | h.zXbXbXbXbXbXdXzXzX",
"vXvXvXvXvXvXmXkX>X/ [ [ [ [ [ ' ' ' ' ] ] ] ] o.D D I K K K K K K K K I D F o.] ] ] ] ] ] ] ] ] ] ] ] ' ' ' ` >XvXvXvXvXvXgXbXcX",
"bXbXbXcXcXcXcXgXk.` ..........................X.) Y U U U U U U U U U U Y  .X...............................^ k.cXcXbXbXzXdXkXzX"
};
