/* XPM */
static char *_05d7cc801ac45cb94474b5700bea84elpN8wYQ5d6zU0bQP[] = {
/* columns rows colors chars-per-pixel */
"64 64 252 2 ",
"   c #1B413E",
".  c #1B4C4B",
"X  c #174848",
"o  c #19534D",
"O  c #1D4E52",
"+  c #1B5453",
"@  c #244D4C",
"#  c #264948",
"$  c #2C534E",
"%  c #235B4D",
"&  c #2B5B4C",
"*  c #265448",
"=  c #335A4C",
"-  c #2D5352",
";  c #2C5C52",
":  c #285D57",
">  c #335B52",
",  c #375B55",
"<  c #2D4E50",
"1  c #2C644C",
"2  c #2C684B",
"3  c #34654D",
"4  c #336B4C",
"5  c #39664E",
"6  c #34794F",
"7  c #2D615C",
"8  c #2B6656",
"9  c #336354",
"0  c #3C6453",
"q  c #346D53",
"w  c #3D6C54",
"e  c #3C645B",
"r  c #3E6B5A",
"t  c #34655C",
"y  c #2D7557",
"u  c #347053",
"i  c #3C7554",
"p  c #3D745C",
"a  c #347C5D",
"s  c #3C7C5D",
"d  c #377855",
"f  c #1C6666",
"g  c #1E7470",
"h  c #2C6362",
"j  c #276868",
"k  c #376965",
"l  c #27786B",
"z  c #3C7C62",
"x  c #3B736A",
"c  c #377868",
"v  c #277A75",
"b  c #377873",
"n  c #256F73",
"m  c #225F60",
"M  c #435E4D",
"N  c #47654B",
"B  c #416454",
"V  c #436B54",
"C  c #436C5A",
"Z  c #47695A",
"A  c #437556",
"S  c #447B54",
"D  c #44735C",
"F  c #4B745B",
"G  c #427A5A",
"H  c #4C7C5C",
"J  c #4A7856",
"K  c #527C5C",
"L  c #55765B",
"P  c #526E4D",
"I  c #647759",
"U  c #71734F",
"Y  c #427464",
"T  c #437C63",
"R  c #4C7C63",
"E  c #477666",
"W  c #547D63",
"Q  c #456F66",
"!  c #972D01",
"~  c #A53B05",
"^  c #B1530E",
"/  c #BA661D",
"(  c #BE6A1F",
")  c #B46118",
"_  c #8A6631",
"`  c #8C6D34",
"'  c #936F37",
"]  c #91723A",
"[  c #8E632C",
"{  c #AC6A2B",
"}  c #C85A08",
"|  c #D7570B",
" . c #C45814",
".. c #C35713",
"X. c #D85D11",
"o. c #CF6619",
"O. c #C2691C",
"+. c #CA6618",
"@. c #DB6515",
"#. c #D76818",
"$. c #CD6A11",
"%. c #EE741D",
"&. c #E0711E",
"*. c #EE6F1B",
"=. c #D67E2C",
"-. c #D27524",
";. c #C56C20",
":. c #EF7A24",
">. c #EF7E2A",
",. c #EE7525",
"<. c #F17C25",
"1. c #F17D2B",
"2. c #F27621",
"3. c #F07B34",
"4. c #EE6F26",
"5. c #967B4A",
"6. c #3C844E",
"7. c #3B8253",
"8. c #3E8A51",
"9. c #3A835D",
"0. c #3F9C59",
"q. c #2C816A",
"w. c #3C8364",
"e. c #3C8C6A",
"r. c #378468",
"t. c #3D946A",
"y. c #2E8375",
"u. c #4B835C",
"i. c #438C5E",
"p. c #498C5E",
"a. c #468357",
"s. c #52825C",
"d. c #56885F",
"f. c #48945D",
"g. c #448263",
"h. c #4C8464",
"j. c #458A63",
"k. c #4B8B63",
"l. c #45846A",
"z. c #448B6B",
"x. c #4A886B",
"c. c #538364",
"v. c #5B8464",
"b. c #548C65",
"n. c #5B8B65",
"m. c #54856A",
"M. c #5C8C6A",
"N. c #54886B",
"B. c #45936C",
"V. c #4A9467",
"C. c #55936A",
"Z. c #5B946B",
"A. c #549C6B",
"S. c #589668",
"D. c #488D71",
"F. c #499671",
"G. c #5A9A72",
"H. c #658868",
"J. c #748D68",
"K. c #66956C",
"L. c #669A74",
"P. c #709471",
"I. c #59A16D",
"U. c #5EA073",
"Y. c #62A372",
"T. c #70845D",
"R. c #BB9C3D",
"E. c #BEA03F",
"W. c #D8812D",
"Q. c #DA8533",
"!. c #DB8938",
"~. c #EF822A",
"^. c #F18127",
"/. c #F2832C",
"(. c #F0882F",
"). c #F28333",
"_. c #F1833A",
"`. c #F28A3D",
"'. c #F48831",
"]. c #E79131",
"[. c #C4A43D",
"{. c #D4AD3E",
"}. c #FCBA2C",
"|. c #E9B232",
" X c #E8B53D",
".X c #FCBE37",
"XX c #EBAD33",
"oX c #FDC82E",
"OX c #FDC132",
"+X c #FDCE3C",
"@X c #FDC935",
"#X c #FDD03D",
"$X c #A7834F",
"%X c #BDA444",
"&X c #BBAD59",
"*X c #BDB55B",
"=X c #A8A24F",
"-X c #BEB961",
";X c #909266",
":X c #F38E41",
">X c #F39243",
",X c #F59648",
"<X c #E39D47",
"1X c #C3A844",
"2X c #C3B35E",
"3X c #C3B051",
"4X c #CBB256",
"5X c #F7AF4B",
"6X c #F5A847",
"7X c #EABB4B",
"8X c #F7B04E",
"9X c #F8B14E",
"0X c #F8BD48",
"qX c #F6A450",
"wX c #F9A753",
"eX c #EABB52",
"rX c #F8BD56",
"tX c #C4B660",
"yX c #C4BA62",
"uX c #FABF62",
"iX c #FCC244",
"pX c #FECD41",
"aX c #FCC54D",
"sX c #FDCA4D",
"dX c #F0C346",
"fX c #FFD648",
"gX c #EDC25A",
"hX c #FCC751",
"jX c #FCCA53",
"kX c #FBC25E",
"lX c #FCCB59",
"zX c #F3C25A",
"xX c #FED45B",
"cX c #FFDB5B",
"vX c #FED454",
"bX c #EAD058",
"nX c #EAC665",
"mX c #EAC868",
"MX c #F3C462",
"NX c #FAC563",
"BX c #FCCE65",
"VX c #FACB6A",
"CX c #FED564",
"ZX c #FFD962",
"AX c #F6D16A",
"SX c #FDD469",
"DX c #FEDB6B",
"FX c #FCD973",
"GX c #FFE265",
"HX c #FFE86A",
"JX c #FFE372",
"KX c #288285",
/* pixels */
"> - $ $ $ < t j h h h h j k < - - - - - , , : h 7 7 h : h h h j k k b k $ - - > , 9 e Y Y Y Y T T T F i A S S S a.K H J a.a.a.a.",
"o o X X X X 7 g f f f f f : X X X X X X . m f m m f f j j f j g g g v j . o % + % % 8 t l y y a a w.d 6 d d 7.7.8.a.S 7.8.8.8.8.",
". @ @ . X   7 v l n n j n h O O O O O O < h f h h j j j h j n n v v KXk # . @ @ % % > k l c z w.w.l.G 6 6 d d 7.7.S S d 6.6.6.6.",
"e 7 7 7 : ; k k : : : : : - < < @ @ @ @ < - k k k k k k k k 7 h h k k t , C e e C r Q E Y p p D D D F F H H H s.u.K K s.s.s.d.d.",
"E v v v v v v t # # # # # M R.[.R.R.R.R.R.R.1X%X%X%X%X%X%X1XR.R.E.E.E.%X1X1X1X1X1X1X1X1X[.[.[.[.[.1X[.{.=Xn.n.n.M.C.n.K.G.L.L.L.",
"b v l l l l v h X . . . . P  XiXaXaXaXaXaXaXaXaXaXaXaXaXaXaXaXaXaXaXaXaXaXaXaXaXaXaXhXhXhXjXjXlXlXlXlXhX3Xb.k.k.b.C.n.Z.I.I.Y.Y.",
"E b c c c c b k < $ - $ < P 7XhXaXiXiXiXiXiXiXiXiXiXiXiXiXiXiXiXiXiXiXOX0XaXaXhXjXlXlXlXlXlXlXBXBXlXSXSX2Xn.n.v.n.M.H.H.Z.K.K.K.",
"x x x x c x , - - - - $ - I 7XaX.X}.}.OXOXOXOXOXOXOXOXOXOX}.}.}.}..X.XiXsXsXhXjXjXjXjXjXjXjXsXaXhXaXlXSX2XL F F F L H H a.a.a.a.",
"l l l l g v : o + o . X . P 7XiX}.}.iXsXpXpXpXpXpXpXpXpXpXpXiX.XiXiXhXCXDXZXZXZXZXCXCXCXcXZXCXjXaXiXjXBX&XS i i i S 7.7.8.8.8.8.",
"q.q.l l q.b 7 o + + + . . P 7XiX}.+XBXrX9XrXrXrXrXrXrXrX9XrXVXBXjXlXSXVXrXrXNXNXNXNXNXNXNXuXVXSXjXiXlXBX&XS i i A J a.7.a.8.a.a.",
"Y Y x x x Q B , , , , , , I 7XiXOXpXzX~.3.:X>X:X:X:X:X:X_.>XVXDXlXxXCX5X2._.>X:X`.:X:X:X_.3.qXSXxXiXlXBX2XK L H H K K H u.s.u.u.",
"r r t , # @ @ $ $ @ - k j v.eXiXOXpX0X:.3._.:X_._._._._.3.`.kXCXhXxXCX6X*.3._._._._._._.3.3.,XCXxXiXlXBXtXK.M.n.A.S.A.A.A.Z.b.f.",
"y y y 9 . o o . X X @ j f c.eXiXOXpX0X/.).:X>X:X:X:X:X:X_.>XkXCXhXlXCX5X>.`.:X:X:X:X:X:X`._.qXSXxXiXlXBXyXA.C.b.A.A.A.A.A.A.f.0.",
"r x z e @ @ - @ @ X $ k j v.eXiXOXpX0X)._.>X>X>X>X>X>X:X_.>XkXCXhXlXCX8X~.:X>X>X>X>X>X>X`._.wXSXxXiXlXBXtXZ.n.n.C.Z.S.S.S.M.d.f.",
"Y 9 9 > = & & , k k k x x H.eXiXOX+X9X)._.:X>X:X:X:X>X:X_.>XkXCXhXlXCX5X>.:X>X>X:X:X:X>X`._.qXSXxXiXlXBX2XM.c.v.n.n.H.H.M.n.M.M.",
"w.& % % 1 % o & b y.v v v N.eXiXOXpXrX).).:X>X:X:X:X>X:X_.>XkXCXhXlXCX5X>.:X>X>X:X:X:X>X`._.qXSXxXiXlXBX2XS.C.C.C.A.C.C.I.A.A.A.",
"z & 1 % % % o * b v v v v M.eX.XOXvXNX).).:X>X:X:X:X>X:X_.>XkXCXhXlXCX5X:.`.>X>X:X:X:X>X`._.wXSXxXiXlXBXtXA.C.Z.C.C.Z.S.I.A.A.A.",
"T 0 r 0 9 9 9 B E b x b b H.7XiXsXZXVX/.1.:X>X:X:X:X>X:X_.>XkXCXhXxXCX5X:.`.>X>X:X:X:X>X`._.qXSXxXiXlXBX2XH.v.n.n.n.v.n.Z.Z.Z.Z.",
"z z E l.w.c c r.c c Y x x H.eXjXlXZXNX^.:.:X,X:X:X:X>X:X_.>XkXCXhXxXCX5X%.).>X>X:X:X:X>X`._.wXSXxXiXlXBX2Xd.u.i.p.p.p.p.p.n.L.K.",
"c q.z r.r.r.q.q.q.c c l c M.nXlXlXZXNX~.%.`.,X:X:X:X>X:X_.>XkXCXhXlXCX8X%.>.>X>X>X:X:X>X`._.wXSXxXiXlXBX*Xb.p.V.V.f.f.f.f.Z.Y.U.",
"z c T l.e.e.e.r.r.T E b b L.mXlXsXZXNX/.%./.>X>X:X:X>X:X_.>XkXCXhXlXCX8X%.:.`.,X>X:X:X>X`._.wXSXxXiXlXBX*Xb.p.f.p.p.f.V.V.K.L.L.",
"R C B B r r C 0 Z Q Q x Q H.mXjXsXZXNX/.%.:.`.>X>X:X>X:X_.>XkXCXhXlXCX9X:.:./.`.>X>X:X>X`._.wXSXxXiXlXBX2Xd.c.c.c.c.v.v.s.u.s.s.",
"D.0 * & * * * * & 7 8 8 7 W nXlXjXZXNX/.2.:./.`.>X>X>X:X_.>XkXCXhXlXCX9X:.:.<.).:X>X>X>X`._.wXSXxXiXlXBXtXn.m.n.m.b.b.v.S 6.6.6.",
"D.0 & & & & * * 9 t 8 t t v.nXlXsXZXNX/.2.>././.`.>X>X>X_.>XkXCXhXlXCX9X:.>./.^./.`.>X>X`._.wXSXxXiXlXBXtXn.k.b.b.b.C.n.d 7.7.7.",
"x.B = 5 = 5 = = , t t t t H.nXlXhXCXNX'.<./.'././.`.>X,X:X,XNXCXhXlXCX9X<././././.'.`.,X>X:XwXCXxXiXlXBX2XH.v.v.v.v.n.v.K J J J ",
"u i q q q q r B > > > = > L nXlXhXZXNX1.*.<./.<.<.<./.).1.`.kXCXhXxXCX5X%.2.<.<.<.<.<./.1.3.qXCXxXiXlXBXtXK.M.M.M.Z.c.u.h.h.h.h.",
"y y y y 2 y u 9 ; ; ; & & L nXjXjXZXMX#.| @.#.@.@.@.@.@.| &.rXDXhXxXCX6X| X.@.#.@.@.@.@.X.| ].SXZXiXlXBXyXG.A.A.A.G.k.8.i.i.i.i.",
"u u u q 2 2 r B & > > ; 9 I nXjXsXZXVXQ.-.=.W.=.=.=.W.=.o.W.kXDXhXlXSXeX-.-.=.=.=.=.=.=.-.+.<XFXZXiXlXBXyXL.G.G.G.L.b.i.i.j.i.i.",
"D D D D F D D F C Z C C B I nXlXaXjXFXAXAXAXAXAXAXAXAXAXAXAXAXlXaXaXBXSXAXAXAXAXAXAXAXAXAXAXFXJXcXaXlXBX2Xv.c.c.c.n.c.H H H K c.",
"l.l.l.l.R s s a s a a s = L nXlXaXaXlXZXZXZXZXZXZXZXZXZXZXZXlXhXhXhXhXlXZXZXZXZXZXZXZXZXZXHXGXhXaXvXxXBX&XJ i A H H u.u.u.u.K c.",
"g.g.g.l.T a 9.9.a a a p & L nXlXhXaXaXsXhXhXhXhXhXhXhXhXsXsXaXhXhXjXaXaXsXsXhXhXhXhXsXsXvXjX]. .o.XXxXSX&XH s G u.p.u.u.u.u.u.k.",
"R R R R E s T R T T T E M I nXlXhXaXhXaXaXaXaXaXaXaXaXaXaXaXhXhXhXhXhXaXaXaXaXaXaXaXaXlXcX].^ ! ~ $.zXDX2XK D F L s.K K K K L W ",
"R R H H G R Z 0 w B B B B J.mXlXhXaXjXhXhXhXhXhXhXhXjXjXhXhXhXhXhXhXhXhXhXhXhXhXhXhXhXxXcX].^ ! ~ } rXJX2Xv.h.h.m.W F F F F F F ",
"g.g.g.9.9.g.r 2 1 1 1 1 1 H.mXlXhXaXhXhXhXhXhXhXhXhXhXhXhXhXhXhXhXhXhXhXhXhXhXhXhXhXhXhXxX0X-.^  .].lXDX2Xb.V.j.V.u.A s G G G G ",
"g.g.g.g.9.h.V 1 3 3 3 1 & H.mXlXhXaXhXhXhXhXhXhXhXhXjXhXhXhXsXhXhXhXhXhXhXhXhXhXhXjXhXhXlXxXiXXX XsXxXBXtXS.V.V.V.H A G G G G G ",
"R H H R R R D r w w r C Z J.mXlXaXaXlXDXZXZXZXZXZXZXZXZXZXCXlXhXsXaXjXCXDXZXCXCXZXZXZXZXZXZXDXZXlXsXlXBX&XK G H h.W H H H H H K ",
"g.g.a.a.H p a z a a a p m.P.mXlXaXlXVXrXrXrXkXkXkXkXkXkXrXkXVXlXsXhXBXNXrXrXkXkXkXkXkXkXrXrXVXDXlXiXlXBX&XV 4 3 H k.k.k.j.j.k.c.",
"j.j.w.w.G a a a a a y y l.L.mXjXsXCXNX'.).>X,X>X>X>X,X>X`.>XNXCXhXxXCX8X^.`.,X,X>X>X>X,X`._.wXSXxXiXlXBX&Xi u 4 u.k.k.k.k.k.k.h.",
"h.h.h.g.F D s G p p p G W P.mXjXjXZXkX%.4._._.)._._._._.3.`.kXCXhXxXCX6X*.3._._.)._._._.3.4.,XCXxXiXjXBX&XV w w K c.h.h.h.h.h.c.",
"F F F F R l.l.h.h.g.h.D D H.nXlXjXCXNX).).:X>X>X>X>X>X:X_.>XkXCXhXlXCX8X>.:X>X>X>X>X>X>X:X_.wXSXxXiXlXBXtXH.v.W h.R R c.c.c.H A ",
"i i i i t.t.t.t.t.t.B.a y n.nXlXjXCXNX).).:X>X:X:X:X>X:X_.>XkXCXhXlXCX5X>.:X>X>X:X:X:X>X`._.wXSXxXiXlXBXyXG.G.h.j.j.j.j.j.j.G 6 ",
"i i i A B.t.t.t.t.t.B.a y H.nXlXjXxXNX).).:X>X:X:X>X>X:X_.>XkXCXhXlXCX5X>.:X>X>X:X:X:X>X`._.wXSXxXiXlXBXyXG.G.h.i.k.j.k.k.k.u.d ",
"F F F F h.k.k.h.T g.R D C H.nXlXjXZXNX/.).:X>X:X:X:X>X:X_.>XkXCXhXlXCX5X>.:X>X>X:X:X:X>X`._.wXSXxXiXlXBXtXM.N.W c.c.W K W W F F ",
"k.k.k.k.u.u.H F G G G G T P.nXlXsXcXNX/.).:X>X:X:X:X>X:X_.>XkXCXhXlXCX5X:.`.>X>X:X:X:X>X`._.wXSXxXiXlXBX-Xb.z.z.D.F.R M 0 0 B V ",
"i.j.i.i.i.j.i.s z s s s z K.nXlXjXZXNX/.1.:X>X:X:X:X>X:X_.>XkXCXhXlXCX5X:._.>X>X:X:X:X>X`._.qXSXxXiXlXBX-XV.B.B.B.F.g.3 4 4 4 4 ",
"u.u.u.u.u.k.h.R z T T T T P.nXlXjXZXNX/.<.`.>X:X:X:X>X:X_.>XkXCXhXlXCX5X:.).>X>X:X:X:X>X`._.qXCXxXiXlXBX-XC.B.B.B.F.R B w w V w ",
"h.c.c.c.m.F V V r V V V F J.nXlXjXZXNX~.%.`.>X:X:X:X>X:X_.>XkXCXhXlXCX8X%.>.>X>X:X:X:X>X`._.qXSXxXiXlXBX2Xc.R R R D A V V V V V ",
"B.B.B.B.F.A 4 4 4 4 4 4 w K.nXlXjXZXNX/.%.).>X>X:X:X>X:X_.>XkXCXhXlXCX8X%.:.`.,X>X`.:X>X`._.qXSXxXiXlXBX*Xh.T g.D 5 u i i i u r ",
"B.B.B.B.F.i 4 4 4 4 4 4 w K.nXlXjXZXNX/.%.:.`.>X>X:X>X:X_.>XkXCXhXlXCX9X:.:./.>X,X>X`.>X`._.qXSXxXiXlXBX*Xk.g.g.F w u u q q q r ",
"N.N.N.N.N.F V Z Z V V V Z J.nXlXjXZXNX/.2.:./.`.>X>X>X:X_.>XkXCXhXlXCX9X:.:.<.).:X,X>X>X`._.qXSXxXiXlXBX2XW R R F F A D C C V Z ",
"A F c.h.R h.h.h.W E g.g.g.K.nXlXjXZXNX/.2.:.^./.`.>X>X:X_.>XkXCXhXlXCX9X:.>./.^.).:X>X>X:X_.wXSXxXiXlXBX2XK s G s T z T E z T T ",
"6 s z.j.j.j.j.z.l.w.r.r.w.L.mXlXjXZXNX/.2././.^./.`.>X>X_.>XkXCXhXlXCX9X<.1././.^./.`.>X:X_.wXSXxXiXlXBX2Xu.9.9.9.w.w.s s z z z ",
"6 G l.g.l.g.g.j.c.T w.w.g.K.mXlXlXZXNX/.2.^./.^.^.^./.`.).>XkXCXhXlXCX9X<.<.^.^.^.^.^.'.).).qXCXxXiXlXBXtXs.9.9.s w.w.T T T T T ",
"R R m.m.h.c.c.h.R R R R R J.gXaXsXZXNX#.| @.#.@.@.@.@.@.| &.rXDXhXxXCX6X| X.@.@.@.@.@.@.X.| ].SXZXiXlXBX2XK F F D F C V V C V w ",
"F.F.F.B.z.D.l.w.e.e.e.e.e.J.eX0XOXvXVXQ.-.W.!.!.!.!.!.!.-.!.NXDXjXlXSXeX=.=.Q.Q.Q.Q.Q.Q.=.-.<XFXZXiXlXVX&XH z p z r 1 1 1 1 & & ",
"F.F.F.B.B.B.z.e.e.e.e.e.t.J.7X0X}..XhX7X7X7XeXeXrXzXzXzXgXMXVXlXhXhXBXVXnXnXMXMXMXMXMXMXgXgXVXVXjXaXlXVX&Xu.z a a p 1 2 2 1 1 1 ",
"N.N.N.N.x.N.m.g.h.h.g.g.l.J.gXsXOX}.@XfXfXfXfXfXfXfXfXvXcXcXsXaXsXsXsXxXGXGXGXGXGXGXGXGXGXHXZXjXhXsXlXCX2XK E E E F B 0 0 0 0 0 ",
"V V V V V V w Z B 0 0 0 B I bXvX#X@X@X@X@X@X@X@X@XoXoXoXoXoX@X+X+X#X#X+X+X+X+X+X+XpXpXpXpXpX+XpXfX#XvXcX*XA C C C r C B 0 0 , , ",
"q 2 4 4 4 4 2 r 9 1 1 3 N U 7X7X|.|.|.|.|.|.|.|.|.|.|.|.|.|.|.|.|.|.|.|.|.|.|.|.|.|.|.|.|.|.|.|.|.|. XdXE.P N u q y u 9 8 8 ; ; ",
"r 4 q 4 4 4 2 V 0 1 5 U ^ ) O.O.O.O.O.O.O.O.O.O.O.O.O.O.O.O.O.O.O.O.O.O.O.O.O.O.O.O.O.O.O.O.O.O.O.O.O.O./ ^ [ I i u p 0 8 8 ; ; ",
"w 3 3 w F D G E Y D I { } ...... . . . . . . . . . . . . . . . . . . . . . . . . . . . . . . . . . .......} } $XZ 0 B B , , B e ",
"9 q 1 w D.D.D.D.C.L.$X} } +.+.+.+.+.o.o.o.o.o.o.o.o.o.o.o.o.o.o.o.o.o.o.o.o.o.o.o.o.o.o.o.o.o.o.o.o.o.o.o.$.} ;.U Z B & ; $ C c ",
"2 2 2 q z.z.z.z.J.;X{ ^ ) / / / / / / ( ( ( ( ( ( ( ( ( ( ( ( ( ( O.O.O.O.O.O.( O.O.O.O.O.( ( ( ( / ( / ( / ) ^ 5.U I % & % t k ",
"w w 9 V x.z.l.l.T.5.' [ _ _ _ _ _ _ ` ] ] ] ] ] ] ' ` ` ` ` ` ` ` ` ` ` ` ` ` ` ' ] ] ] ] ] ] ' _ _ _ _ _ _ _ [ _ U P ; ; $ e k "
};
