/* XPM */
static char *_22dbfa3223b4eaeb6c2f91c19dc73dcUKBDmSAlVXXNHh4Q[] = {
/* columns rows colors chars-per-pixel */
"64 64 197 2 ",
"   c #A9460D",
".  c #B64B0B",
"X  c #BF580C",
"o  c #BC5305",
"O  c #A84A10",
"+  c #B75715",
"@  c #B95714",
"#  c #BF5E15",
"$  c #A5561A",
"%  c #BE601B",
"&  c #C3560F",
"*  c #CE5609",
"=  c #C55A0C",
"-  c #CC5A0B",
";  c #C25704",
":  c #C05D13",
">  c #D1640F",
",  c #C56317",
"<  c #CD6715",
"1  c #CE6816",
"2  c #C76518",
"3  c #CA6718",
"4  c #CE6919",
"5  c #D46413",
"6  c #D56D1A",
"7  c #E76F1E",
"8  c #E7701C",
"9  c #EE751F",
"0  c #C56C26",
"q  c #D97720",
"w  c #DE7E21",
"e  c #E77223",
"r  c #EE7623",
"t  c #EC7924",
"y  c #EF7C2B",
"u  c #F27C26",
"i  c #F17D2C",
"p  c #EF7E32",
"a  c #DA8422",
"s  c #DC852A",
"d  c #DE8B2C",
"f  c #DB8823",
"g  c #DC9E2C",
"h  c #DA8B34",
"j  c #DE943B",
"k  c #DE9134",
"l  c #EF8029",
"z  c #E2882A",
"x  c #F08027",
"c  c #F2832B",
"v  c #F4992D",
"b  c #F4932A",
"n  c #EF8033",
"m  c #F08233",
"M  c #F38A35",
"N  c #F2873D",
"B  c #F28A3C",
"V  c #EF9435",
"C  c #E99737",
"Z  c #F49533",
"A  c #F49936",
"S  c #F49C3A",
"D  c #DCA032",
"F  c #FCBA2B",
"G  c #EBA63C",
"H  c #EDAB3D",
"J  c #F7A03D",
"K  c #FCBC35",
"L  c #F0B339",
"P  c #FCBF3B",
"I  c #F7BB3C",
"U  c #FCC03D",
"Y  c #FFCD3C",
"T  c #C98047",
"R  c #C78048",
"E  c #D88C4C",
"W  c #F38F41",
"Q  c #F39143",
"!  c #F69E45",
"~  c #F89F43",
"^  c #D7A845",
"/  c #DDA842",
"(  c #D9AE53",
")  c #E8A749",
"_  c #E7A446",
"`  c #F7A344",
"'  c #F8A147",
"]  c #F7A945",
"[  c #F6A14A",
"{  c #F8A44C",
"}  c #F8AC4E",
"|  c #F4BE46",
" . c #F5BE48",
".. c #FAB84D",
"X. c #FABB50",
"o. c #FABD5C",
"O. c #FCC345",
"+. c #FFCE41",
"@. c #FCC64D",
"#. c #FDC949",
"$. c #F7C24E",
"%. c #FCC751",
"&. c #FCC953",
"*. c #FCCB5B",
"=. c #F8C358",
"-. c #FFD156",
";. c #FFD855",
":. c #FED35B",
">. c #EEC265",
",. c #EEC66E",
"<. c #EFC86F",
"1. c #F2C665",
"2. c #FAC161",
"3. c #F7C966",
"4. c #FCCD62",
"5. c #F2C669",
"6. c #FACD6B",
"7. c #FBC668",
"8. c #EFD060",
"9. c #FDD363",
"0. c #FFDA63",
"q. c #FCD26B",
"w. c #FDD86E",
"e. c #EDC772",
"r. c #EFC871",
"t. c #EECC7F",
"y. c #F1CA73",
"u. c #F0CD7F",
"i. c #FDD671",
"p. c #FEDA73",
"a. c #FEDA79",
"s. c #F3D873",
"d. c #FFE073",
"f. c #BCA08F",
"g. c #BFA695",
"h. c #BEBCBA",
"j. c #CFAE92",
"k. c #C7AF9C",
"l. c #C4A995",
"z. c #CFB195",
"x. c #D8B799",
"c. c #D0B194",
"v. c #C1BEBC",
"b. c #EFCD81",
"n. c #F0CE82",
"m. c #F2D084",
"M. c #C3C1BE",
"N. c #C6C4C2",
"B. c #C9C6C4",
"V. c #CBC9C6",
"C. c #C9C7C9",
"Z. c #CCCAC8",
"A. c #CDCBC8",
"S. c #CECBC9",
"D. c #CECCC9",
"F. c #CFCCC9",
"G. c #CFCDCA",
"H. c #CFCCCA",
"J. c #CECDCA",
"K. c #CFCECC",
"L. c #CECCCA",
"P. c #D0CCC7",
"I. c #D0CDCB",
"U. c #D0CECB",
"Y. c #D1CECA",
"T. c #D2CFCA",
"R. c #D1CFCD",
"E. c #D0CECC",
"W. c #D0CECD",
"Q. c #D0CECC",
"!. c #D1D0CE",
"~. c #D2D1CF",
"^. c #D2D0CD",
"/. c #D4D2CE",
"(. c #D2D1CE",
"). c #D3D2D0",
"_. c #D4D3D1",
"`. c #D5D4D2",
"'. c #D5D5D3",
"]. c #D6D5D3",
"[. c #D7D5D3",
"{. c #D6D4D0",
"}. c #D7D6D4",
"|. c #D7D7D5",
" X c #D6D6D4",
".X c #D6D5D4",
"XX c #D6D5D3",
"oX c #D8D7D5",
"OX c #D8D7D6",
"+X c #D8D7D5",
"@X c #D9D8D6",
"#X c #D9D9D7",
"$X c #D8D8D6",
"%X c #DAD9D7",
"&X c #D9D8D6",
"*X c #DADAD8",
"=X c #DBDBD9",
/* pixels */
"v.v.v.v.v.v.v.v.v.h.A._.I.G.G.I.I.I.I.^.G.I.G.A.G.G.G.G.G.G.G.B.A.G.G.G.G.I.I.G.G.G.V.V.V.A.A.A.A.A.A.A.N.B.R.G.I.I.I.I.I.G.I.B.",
"B.B.B.B.B.B.B.B.V.M.N.$X].|.|.|.|.|.].oXG.G.*X$XoXoX$X$XoXoX*XG.^.$X|.|.|.|.|.|.$X).I.*X$X$X$X$X$X$X$X=XK.A.$X].].].].].].].$XV.",
"N.N.N.N.N.N.N.N.N.h.G.*X|.|.|.|.$X$XoX$X].].oXoXoX$XoX|.|.oX$XR._.$XoX|.|.$X|.].oX).G.|.|.|.|.|.|.].|.$XA.A.$X].].].].].].].*XB.",
"B.B.B.B.B.V.N.N.N.M.A.^.G.A.V.A.V.V.A.A.V.V.V.A.G.V.V.A.V.V.A.V.A.A.V.A.V.A.I.G.A.V.B.V.G.G.I.G.R.R.G.R.V.N.A.A.A.A.R.R.G.A.V.N.",
"_._._._.].G.V.R.G.R.G.V.e.I |  .| | | | | | | | | | | |  . . . . . .|  . .| |  .| | | | | |  . . . .| ,./.^.G.R.R.^.G.A.^.R.K.).",
"oXoX$X|.*XK.A.].).).).^.1.O.*.%.%.%.%.%.%.%.%.%.%.%.%.%.%.%.%.%.%.%.@.%.@.@.@.%.*.*.*.*.*.*.4.4.4.4.*.3.[.|.|.|.|.$X^.G.|.|.|.|.",
").^.^.].oXG.V.^.R.I.R.I.5.*.@.O.O.O.O.O.O.O.O.O.O.O.O.O.O.O.O.O.O.O.O.O.@.*.*.*.4.4.4.4.4.4.4.4.4.9.i.y./._._.)._.|.R.V._.]._._.",
"N.M.v.N.V.V.B.B.B.B.B.B.>.@.K F F F F F F F F F F F F F F F F F K P U O.O.@.@.@.O.O.O.O.O.O.@.@.@.%.q.r.V.V.V.V.B.A.I.A.G.I.G.G.",
"V.V.V.N.G.^.^.^.R.R.^.^.5.%.U K P #.#.#.#.#.#.#.#.#.#.#.#.O.O.@.*.*.q.q.9.9.9.9.9.9.9.9.9.9.*.%.%.*.q.y.^.^.^.).V.G.oX].].].].].",
"Z.A.Z.V.^._.).).).).).].5.%.P K *.X...X.X.X.X.X.X.X.X.X.=.a.*.%.%.a.2.o.2.2.2.2.2.2.2.2.o.7.i.@.%.*.q.y./.).].|.R.].=X$X$X$X$X$X",
"V.V.B.N.B.V.V.V.V.A.V.B.>.%.P P -.b r B B B B B B B B m S w.*.@.%.p.b 9 N B B B B B B B m ! w.%.%.*.q.y.I.I.G.A.N.M.A.R.R.G.V.I.",
"R.R.R.^.G.G.G.G.R.G.v.h.>.%.P K -.Z p Q W W W W W W W N ! i.*.@.%.p.A i Q W W W W W W W N [ w.%.%.*.q.y.V.B.V.V.B.N.B.V.V.V.B.M.",
"|.|.|.|.|.oX|.oX$X).v.B.>.%.P K -.v m Q W W W W W W Q N ! w.*.@.%.p.A m Q W W W W W W Q N [ w.%.%.*.q.y.I.A.`.^.).).).^.^.).].B.",
"].|.oXoXoX|.|.|.$X].N.B.>.%.P K -.v m Q W W W W W W Q N ! w.*.@.%.p.A m Q W W W W W W Q N [ w.%.%.*.q.y.V.B.K.^.R.K.R.R.K.K.K.N.",
"A.I.V.B.B.N.N.N.B.B.B.M.>.%.P P -.v m Q W W W W W W Q N ! i.*.@.%.p.A m Q W W W W W W Q N [ w.%.%.*.6.<.B.B.B.V.A.B.B.V.V.B.N.B.",
"^.A.v.N.N.N.N.N.N.N.N.M.>.%.U K -.Z n Q W W W W W W Q N ! i.*.@.%.p.A m Q W W W W W W Q N [ w.%.%.*.6.y./.].R.N.K.R.R.R.R.R.^.^.",
"].G.M.B.B.B.B.B.V.V.V.B.>.%.K P p.S y Q W W W W W W Q N ! i.*.@.%.p.A y Q W W W W W W Q N [ w.%.%.*.q.y.].|.^.N.).).^.).^.^.^.^.",
"R.A.M.N.N.N.N.B.M.M.M.N.>.@.O.%.p.S t Q Q W W W W W Q N ! i.*.@.%.p.A t Q W W W W W W Q N [ w.%.%.*.q.y.V.V.N.N.V.V.V.V.A.R.G.A.",
"R.R.R.I.R.R.R.A.G.I.I.I.1.*.*.%.p.S r B Q W W W W W Q N ! i.*.@.%.p.A t B Q W W W W W Q N [ w.%.%.*.q.y.G.G.G.^.I.G.R.R.A.G.^.I.",
"|.|.|.|.|.|.$XG.).$XoX|.y.q.*.%.p.S r M Q W W W W W Q N ! i.*.@.%.p.A r M Q W W W W W Q N [ w.%.%.*.q.y.[.oXoX|.|.|.|.*X^.K.$X|.",
"|.|.|.$X$X|.].^.|.$X|.].m.4.*.%.p.S r c B Q W W W W Q N ! w.*.@.%.p.A t c W Q W W W W Q N [ w.%.%.*.q.y.[.oX$X$X$X|.].].G.R.|.].",
"A.G.G.V.G.G.V.A._.R.I.I.n.4.*.%.p.S t c c Q Q W W W Q N ! w.*.@.%.p.A t x m Q Q W W W Q N [ w.%.%.*.6.<.B.B.B.N.B.A.A.V.V.V.V.V.",
"^.^.].N.A._.^.^.^.^.^.^.n.4.*.%.p.S t c x M Q Q W W Q N ! i.*.@.%.p.A t c x M Q Q W W Q N [ w.%.%.*.q.<.M.M.M.M.h.V.]._._.).^.^.",
"oXoX*XA.^.*X$XoXoX$XoX$Xm.4.*.%.p.S t c c x M Q Q W Q N ! i.*.@.%.p.A t c c y M Q Q W Q N [ w.%.%.*.q.r.V.V.V.V.N.K.*XoXoXoXoXoX",
"^.^.^.B.G.^.G.R.R.G.R.I.n.4.*.%.p.S t c c c x m W Q Q N ! i.*.@.%.p.A t c c c y m W Q Q N [ w.%.%.*.q.<.M.M.M.N.N.A._.I.R.R.^.R.",
"V.V.V.V.A.A.A.A.A.A.A.V.b.4.*.%.p.J u c c c c c c M Q W ' w.*.@.%.p.S u c c c c c c M Q W { w.%.%.*.q.<.M.M.M.M.N.N.V.A.A.A.A.A.",
"_._._.).^.oX$X|.oXoXoXoXm.4.*.%.p.A 7 t t t t t t t t e V p.*.@.%.p.V 8 t t t t t t t t e S p.%.%.*.6.r.A.L.L.Z.L.B.^.*XoXoX|.|.",
").).).^.R.].oX].|.|.|.].m.4.*.%.p.d = 1 < < < < < < < = a p.*.@.*.p.d = < < < < < < 1 1 = s p.%.%.*.6.r.A.Z.Z.A.A.B.^.$X|.|.oX$X",
"V.V.A.V.V.V.V.V.V.G.A.G.n.4.*.@.q.6.3.3.3.3.3.3.3.3.3.3.6.i.%.@.@.i.6.3.3.3.3.3.3.3.3.3.3.6.i.#.%.*.q.r.V.A.I.I.G.A.G.R.R.^.G.V.",
"^.^.^.^.^.^.^.].V.A._.^.n.4.*.%.%.:.:.:.:.:.:.:.:.:.:.:.:.%.%.%.%.%.:.:.:.:.:.:.:.:.:.:.:.0.&.-.&.*.q.r.^._._.^.^._.^.^.).^.N.N.",
"|.|.|.|.|.|.|.*XG.R.*XoXm.4.*.%.%.@.@.@.@.@.@.@.@.@.@.@.@.@.%.%.%.@.@.@.@.@.@.@.@.@.@.@.-.G w z $.-.q.r.[.*X*X$X$X$X$X$X$XoXV.Z.",
"]._._._._._._.].^.G.R.^.n.4.*.%.%.%.%.%.%.%.%.%.%.%.%.%.%.%.%.%.%.%.%.%.%.%.%.%.%.%.%.-.H & O . q *.w.y.I.R.K.K.K.K.G.K.R.I.B.B.",
"N.N.N.N.N.N.N.N.N.V.A.V.n.4.*.%.%.%.%.%.%.%.%.%.%.%.%.%.%.%.%.%.%.%.%.%.%.%.%.%.%.%.*.-.f & $ + 5 $.w.<.v.v.v.v.v.v.v.v.M.v.V.R.",
"B.B.B.B.B.B.B.V.M.A.|.).n.4.*.%.%.%.%.%.%.%.%.%.%.%.%.%.%.%.%.%.%.%.%.%.%.%.%.%.%.%.%.-.L =   . s -.q.<.N.V.B.B.B.B.B.B.V.N.V.*X",
"V.V.V.V.V.V.V.Z.N.G.oX].m.4.*.%.%.%.%.%.%.%.%.%.%.%.%.%.%.%.%.%.%.%.%.%.%.%.%.%.%.%.%.%.-.L f C &.*.6.r.M.B.B.B.V.V.V.V.Z.N.B.*X",
"N.N.v.v.v.h.v.M.v.N.B.N.b.4.*.%.@.%.%.%.%.%.%.%.%.%.%.&.%.@.%.%.%.@.%.*.%.%.%.%.%.%.%.%.%.-.;.:.%.%.q.<.B.V.V.N.M.N.N.N.N.N.M.M.",
"G.N.v.N.N.N.N.N.N.N.M.M.t.4.*.@.4.i.w.w.w.w.w.w.w.w.w.w.i.q.%.%.@.q.i.w.w.w.w.w.w.w.w.w.w.i.6.@.%.*.q.y./.^.G.M.N.N.N.N.N.N.N.M.",
"].B.N.V.B.V.V.V.V.B.B.N.t.4.*.%.p.] M ! ! ! ! ! ! ! ! ! ] i.*.@.%.p.] M ! ! ! ! ! ! ! ! ! } p.%.%.*.q.y./.].G.M.V.B.B.B.B.B.B.V.",
"G.v.v.B.B.N.N.N.B.B.V.V.t.4.*.%.p.Z r N N N N N N N N m S w.*.@.%.p.Z r W N N N N N N N m ! w.%.%.*.q.y.^.|.G.M.Z.V.V.V.V.V.V.V.",
"B.B.V.I.I.I.G.G.I.R.V.I.n.4.*.%.p.S p Q W W W W Q Q Q N ! i.*.@.%.p.A c Q W W W W W W Q N [ w.%.%.*.q.r.B.G.V.N.B.N.N.B.N.N.B.N.",
"V.=X|.|.|.|.|.|.|.*XA.V.n.4.*.%.p.S m Q W W W W W W Q N ! w.*.@.%.p.A m Q W W W W W W Q N [ w.%.%.*.q.y.D.B.V.V.V.V.V.V.V.V.V.V.",
"V.=X$X|.oXoXoXoXoX*XG.A.m.4.*.%.p.S m Q W W W W W W Q N ! w.*.@.%.p.A m Q W W W W W W Q N [ w.%.%.*.q.y.I.V.Z.Z.Z.G.K.G.G.G.K.K.",
"B.R.R.R.A.G.G.G.G.I.V.B.t.4.*.%.p.S m Q W W W W W W Q N ! w.*.@.%.p.A m Q W W W W W W Q N [ w.%.%.*.6.y.V.B.B.B.Z.N.v.N.N.M.v.M.",
"M.v.v.V.^.R.R.K.G.G.^.I.n.4.*.%.p.S y Q W W W W W W Q N ! w.*.@.%.p.A i Q W W W W W W Q N [ w.%.%.*.q.y.I.R.R.R.G.v.h.v.v.v.h.v.",
"B.B.v.V.*X|.|.|.|.|.].].m.4.*.%.p.S t Q Q W W W W W Q N ! w.*.@.%.p.A y Q W W W W W W Q N [ w.%.%.*.q.y.].|.|.*XK.N.B.B.B.B.B.B.",
"N.N.M.N.]._._.).].]._./.m.4.*.%.p.S r Q Q W W W W W Q N ! w.*.@.%.p.A t W Q W W W W W Q N [ w.%.%.*.q.y./.^.R.R.V.N.N.N.N.N.B.N.",
"V.V.V.V.V.A.A.A.B.V.A.P.n.4.*.%.p.S r B Q W W W W W Q N ! w.*.@.%.p.A r B Q W W W W W Q N [ w.%.%.*.q.<.P.V.V.N.B.V.V.V.V.N.V.G.",
"].].].].]._._.|.B.G.].].m.4.*.%.p.S r c Q W W W W W Q N ! w.*.@.%.p.A r c Q W W W W W Q N [ w.%.%.*.q.<.].|.|.|.|.|.|.|.*XG.V.$X",
"|.|.|.|.|.|.|.*XV.R.*X$Xm.4.*.%.p.S t c B Q W W W W Q N ! i.*.@.%.p.A t c B Q W W W W Q N [ w.%.%.*.q.<.[.|.|.|.|.|.|.|.*X^.G.*X",
"G.G.G.G.G.G.R.R.B.G.R.A.n.4.*.%.p.S t c c B Q W W W Q N ! i.*.@.%.p.A t c c W Q W W W Q N [ w.%.%.*.q.r.^.^.R.R.^.^.^.^._.A.B.R.",
"G.G.I.G.I.R.A.N.^.^.I.G.n.4.*.%.p.S t c c c W Q W W Q N ! i.*.@.%.p.A t c l c W Q W W Q N [ w.%.%.*.q.y.D.G.A.G.G.G.G.R.B.M.N.N.",
"|.|.|.|.|.oX|.V.].|.|.].m.4.*.%.p.S t c c c c B Q Q W N ! i.*.@.%.p.A t c c x c B Q Q Q N [ w.%.%.*.q.y./.]._._._._._.$XG.N.G.A.",
"_.].].|.oXoX_.V.|.oXoXoXm.4.*.%.p.S t c c c c c M W Q W ' w.*.@.%.p.A t c c c c c M Q Q W [ w.%.%.*.q.y.[.|.oXoXoX]._.].A.N.A.Z.",
"G.A.A.V.A.A.B.V.G.G.G.G.u.4.*.*.p.J u c c c c c c c M B ~ i.*.@.%.p.S u c c c c c c c M B { w.%.%.*.q.<.B.B.B.B.N.B.G.V.V.B.B.B.",
"_.).].N.B.K.K.R.G.G.G.G.5.%.O.@.p.z * 5 5 5 5 5 5 5 > * w p.*.@.%.p.z * 5 5 5 5 5 5 5 5 * z p.%.%.*.q.<.N.N.N.B.h.B.|.^._._.)._.",
"|.|.*XV.G.|._.).)._._./.5.@.K K 9.G s k j j j j j j j h _ p.*.@.%.a.) h j j j j j j j j h ) p.%.%.*.q.r.A.A.G.K.M.G.=XoXoX|.$X$X",
"^.^.^.N.N.G.A.G.K.A.A.D.5.%.U K O.-.-.-.-.:.:.0.w.w.p.d.p.4.%.*.%.4.p.d.p.p.p.p.p.p.p.p.d.p.4.%.%.*.q.r.B.B.B.B.v.V._.^.^._.R.I.",
"V.V.B.B.N.N.B.B.M.N.B.V.>.@.P K K F F K F F F F F F K K K P O.O.@.O.O.@.@.@.@.@.@.@.@.@.@.@.@.*.%.&.4.,.M.N.M.v.N.N.v.M.N.M.M.M.",
"R.R.R.^.^.^.).K.N.)._.).s.-.+.Y Y Y Y Y Y Y Y Y Y Y Y Y Y Y Y Y Y Y Y Y Y Y Y Y +.+.+.+.+.+.Y Y Y +.:.8.Z.Z.Z.Z.Z.C.C.C.C.N.V.G.",
"^.^.^.^.^.^.^.R.B.V.l.k.( / D g g g g g g g g g g g g g g g g g g g g g g g g g g g g g g g g g g g / ^ g.f.v.B.B.B.B.B.B.N.B.A.",
"A.A.G.G.G.G.A.V.B.z.X # @ @ @ @ @ @ @ @ @ @ @ @ @ @ @ @ @ @ @ @ @ @ @ @ @ @ @ @ @ @ @ @ @ @ @ @ @ @ @ @ % X j.B.B.B.N.N.N.N.V.G.",
"^.^.^.^.^.^._.A.V.E > 6 6 6 6 6 6 6 6 6 6 6 6 6 6 6 6 6 6 6 6 6 6 6 6 6 6 6 6 6 6 6 6 6 6 6 6 6 6 6 6 6 6 5 E /._._._.]._.V.^.^.",
"|.|.|.|.|.|.$XR.c.o , , , , 2 3 3 3 3 4 4 4 4 4 4 4 4 4 4 4 4 4 4 4 4 4 4 4 4 4 4 4 4 4 4 4 4 4 4 4 4 3 3 3 ; x.|.|.|.|.|.G._.].",
"_._._.].].].].G.R : 0 0 0 0 0 0 0 0 0 0 0 0 0 0 0 0 0 0 0 0 0 0 0 0 0 0 0 0 0 0 0 0 0 0 0 0 0 0 0 0 0 0 0 0 # T ].]._._.^.V.R.^."
};
