/* XPM */
static char *_c718a61d7fa4d9aeff78de6f9f941bfwzpK8WHPv6lPwnM2[] = {
/* columns rows colors chars-per-pixel */
"64 64 163 2 ",
"   c #B9B6B4",
".  c #BAB8B5",
"X  c #BEBCBA",
"o  c #C1BEBD",
"O  c #C3C1BE",
"+  c #C6C4C2",
"@  c #C9C6C4",
"#  c #C9C8C6",
"$  c #C9C9C7",
"%  c #C8C8C6",
"&  c #CAC8C6",
"*  c #CBC8C6",
"=  c #CAC9C6",
"-  c #CBC9C6",
";  c #CBC8C7",
":  c #CAC9C7",
">  c #CBC9C7",
",  c #CBCAC7",
"<  c #CAC8C5",
"1  c #CCC9C6",
"2  c #CCC9C7",
"3  c #CCCAC6",
"4  c #CDCAC6",
"5  c #CCCAC7",
"6  c #CBC9C6",
"7  c #C7C6C8",
"8  c #C7C6C8",
"9  c #C8C6C8",
"0  c #C8C7C8",
"q  c #C9C7C9",
"w  c #C9C7C9",
"e  c #C9C9C8",
"r  c #CAC9C8",
"t  c #CAC8C9",
"y  c #CBC9C9",
"u  c #CBCAC8",
"i  c #CBCBC9",
"p  c #CAC8CA",
"a  c #CBC9CA",
"s  c #CAC9CB",
"d  c #CCC9C8",
"f  c #CCCAC8",
"g  c #CDCAC8",
"h  c #CCCBC8",
"j  c #CDCBC8",
"k  c #CCCAC9",
"l  c #CCCBC9",
"z  c #CDCBC9",
"x  c #CECBC8",
"c  c #CECBC9",
"v  c #CCCBCA",
"b  c #CDCBCA",
"n  c #CCCACB",
"m  c #CCCBCB",
"M  c #CCCCC9",
"N  c #CDCCC9",
"B  c #CECCC9",
"V  c #CFCCC9",
"C  c #CCCCCA",
"Z  c #CDCCCA",
"A  c #CDCCCB",
"S  c #CECCCA",
"D  c #CFCCCA",
"F  c #CFCDCA",
"G  c #CECCCB",
"H  c #CECDCB",
"J  c #CFCDCB",
"K  c #CFCECB",
"L  c #CCCACC",
"P  c #CDCCCC",
"I  c #CECDCC",
"U  c #CFCDCC",
"Y  c #CECECC",
"T  c #CFCECC",
"R  c #CFCECD",
"E  c #CFCFCD",
"W  c #CDCCCA",
"Q  c #D0CDCA",
"!  c #D0CDCB",
"~  c #D0CECA",
"^  c #D0CECB",
"/  c #D0CDCC",
"(  c #D0CECC",
")  c #D1CECC",
"_  c #D0CFCC",
"`  c #D1CFCC",
"'  c #D0CECD",
"]  c #D0CFCD",
"[  c #D1CFCD",
"{  c #D0CFCE",
"}  c #D1CFCE",
"|  c #D0CECC",
" . c #D0D0CD",
".. c #D1D0CD",
"X. c #D2D0CD",
"o. c #D0D0CE",
"O. c #D1D0CE",
"+. c #D1D0CF",
"@. c #D1D1CF",
"#. c #D2D0CE",
"$. c #D2D1CE",
"%. c #D2D0CF",
"&. c #D2D1CF",
"*. c #D3D1CF",
"=. c #D2D2CF",
"-. c #D4D2CF",
";. c #D2D1CE",
":. c #D2D1D0",
">. c #D2D2D0",
",. c #D3D2D0",
"<. c #D3D3D0",
"1. c #D3D2D1",
"2. c #D3D3D1",
"3. c #D4D2D0",
"4. c #D5D2D0",
"5. c #D4D3D0",
"6. c #D4D2D1",
"7. c #D4D3D1",
"8. c #D5D3D1",
"9. c #D4D3D2",
"0. c #D3D4D2",
"q. c #D5D4D1",
"w. c #D6D4D1",
"e. c #D4D4D2",
"r. c #D5D4D2",
"t. c #D4D4D3",
"y. c #D5D4D3",
"u. c #D5D5D3",
"i. c #D6D4D2",
"p. c #D6D5D2",
"a. c #D6D5D3",
"s. c #D7D5D3",
"d. c #D5D5D4",
"f. c #D6D5D4",
"g. c #D7D5D4",
"h. c #D6D6D4",
"j. c #D7D6D4",
"k. c #D7D7D4",
"l. c #D7D6D5",
"z. c #D7D7D5",
"x. c #D5D5D3",
"c. c #D8D6D4",
"v. c #D8D7D5",
"b. c #D8D7D6",
"n. c #D8D7D5",
"m. c #D7D8D5",
"M. c #D8D8D6",
"N. c #D9D8D6",
"B. c #D9D8D7",
"V. c #D9D9D7",
"C. c #DAD8D7",
"Z. c #DAD9D7",
"A. c #D9DAD7",
"S. c #D9D8D7",
"D. c #D9D9D8",
"F. c #DAD9D8",
"G. c #DADAD8",
"H. c #DBDAD8",
"J. c #DBDAD9",
"K. c #DCDBD9",
"L. c #DCDBDA",
"P. c #DDDDDB",
"I. c #DBDAD9",
/* pixels */
"o o o o o o o o o X z 3.Q F F Q Q Q Q ..F Q F z F F F F F F F @ z F F F F Q Q F F F < < 1 z z z z z z z + @ [ F Q Q Q Q Q F Q @ ",
"% % % % % % % % < O + M.s.z.z.z.z.z.s.v.F F D.M.v.v.M.M.v.v.D.F ..M.z.z.z.z.z.z.M.,.Q D.M.M.M.M.M.M.M.P.T z M.s.s.s.s.s.s.s.M.< ",
"+ + + + + + + + + X F D.z.z.z.z.M.M.v.M.s.s.v.v.v.M.v.z.z.v.M.[ 3.M.v.z.z.M.z.s.v.,.F z.z.z.z.z.z.s.z.M.z z M.s.s.s.s.s.s.s.D.@ ",
"@ @ @ @ @ < @ + + O z ..F z 1 z < < z z < < < z F 1 < z < 1 z < z z < z 1 z Q F z < @ 1 F F Q F [ [ F [ < + z z z z [ [ F z 1 + ",
"3.3.3.3.s.F < [ F [ F z z z z F o O % + @ + % % % @ + @ z < < i z < < < F O @ s.[ ..............1 [ ........F [ [ ..F z ..[ T ,.",
"v.v.M.z.D.T z s.,.,.,.,.,.,.,.s.+ < T F F F F F F T < < ,.[ [ [ [ ..[ [ ,.@ F M.z.z.z.z.z.z.z.z.z 3.M.z.z.z.z.z.z.M...F z.z.z.z.",
",.....s.v.F < ..[ [ [ [ [ ..3...O @ z z z z F z F F + @ T T T T F F F [ ..@ ..M.s.3.s.s.s.z.v...< [ 3.,.,.3.3.,.3.z.[ 1 3.s.3.3.",
"+ O o + 1 < @ @ @ @ @ @ @ @ + + + @ @ @ @ @ @ @ @ F 1 1 1 F F F z z F < O + @ + + O O O + + @ z @ < < < < 1 1 < @ z Q z F Q F F ",
"< < < + F ......[ [ ....[ z + T T F F F F z z T @ F M.z.s.s.s.s.s.s.M.< O @ + + + % % % % O + 3...............,.1 F v.s.s.s.s.s.",
"i z i < ..3.,.,.,.,.,.s.z...@ ,.,.,.,.,...[ ..,.z ..L.M.D.M.D.D.D.D.P.F + z i i i z i < < + @ s.,.,.,.3.,.,.s.z.[ s.L.M.M.M.M.M.",
"< < @ + @ < < < < z < + + O O @ + + + + @ 1 @ @ O @ z z z z z F z < z + X O O O O O + @ @ O @ [ Q Q Q Q [ Q F z + O z [ [ F 1 Q ",
"[ [ [ ..F F F F [ F o X X o o o o o o X o o + + + + o o o + o o o O o O O O O O + X + -.[ [ [ Q [ Q Q [ < @ 1 < @ + @ < < < @ O ",
"z.z.z.z.z.v.z.v.M.,.o % 7 % % % % % % 0 + @ L i 0 0 0 0 i i 0 + < i < < < < < < i + @ D.z.z.z.z.z.z.z.M.F z 0...,.,.,.....,.s.@ ",
"s.z.v.v.v.z.z.z.M.s.+ 0 @ + + + + + + + O + % i T z z i i i i @ < F @ + + + + + % X + z.,.............3.z @ T ..[ T [ [ T T T + ",
"z Q < @ @ + + + @ @ @ O @ F < 1 z z < < < @ < @ + + + O O + + + O o @ z < < 1 1 1 @ z F @ + @ @ @ < < < @ @ @ < z @ @ < < @ + @ ",
"..z o + + + + + + + + O + z.z.z.z.z.z.z.z.z.M.@ o O o O O O + + + X < L.z.z.z.z.z.v.z.z.F F 3.,.,.......,.s.[ + T [ [ [ [ [ ....",
"s.F O % % % % % < < < % + s.M.v.v.v.v.v.v.v.D.z + @ @ @ @ + @ @ @ o z P.v.v.z.v.v.z.z.M.T ..s.s.s.s.s.3.s.z...+ ,.,...,.........",
"[ z O + + + + @ O O + + O F Q z z z [ [ Q Q 1 o o o o o + @ O O O X + [ [ ......F z z [ 1 @ < z z z F z i < + + 1 < 1 < z [ F z ",
"[ [ [ Q [ [ [ z F Q Q [ ..[ F F Q F @ z z z < < z z F F @ o + O O + o o + + + O z F z z F z z F F < @ [ F F F ..Q F [ [ z F ..Q ",
"z.z.z.z.z.z.M.F ,.M.v.z.z.z.z.z.v.s.i ,.,...,.,.,.,.,.z.i o 0 0 0 0 0 7 % % + + ,.z.s.s.s.s.s.s.z...z M.v.v.v.z.z.z.z.D...T M.z.",
"z.z.z.M.M.z.s...z.M.z.z.z.v.s.s.v.s.i F ,.,.,.,.3.,...,.@ + 0 @ % % % % % 0 % @ ..3.3.s.s.s.v.v.z...[ M.v.v.M.M.M.z.s.s.F [ z.s.",
"z F F 1 F F < z 3.[ Q Q [ [ [ Q [ [ 1 < F [ [ [ Q F z 1 < 1 z < @ @ + z z @ < 1 z z F Q [ [ 1 + + + + % @ @ @ + @ z z 1 1 1 1 1 ",
"....s.+ z 3...............[ F ......3.3.,.....s.z 1 s.3.s.s.3.3.3.s.s...3.3.3.3.,.,.,...,.,.O X + + + O O O O O X < s.3.3.,.....",
"v.v.D.z ..D.M.v.v.M.v.M.M.s.T v.v.v.v.v.v.v.v.D.F z P.M.M.M.M.M.M.M.L.[ ,.M.v.z.z.z.z.z.M.M.% + < < < < < < < < + T D.v.v.v.v.v.",
"......@ F ..F [ [ F [ F [ F 1 [ Q [ [ [ [ [ ..3.< @ ..F F Q [ [ [ F F @ z [ [ ........[ [ ..O O + + + + + O O + + z 3.Q [ [ ..[ ",
"1 1 1 < z z z z z z z z z F < @ z z z F F F F z [ +   X X X X X X X X . + Q z F F F F z z F 1 + + + + + + O + + + + 1 z z z z z ",
"3.3.3.,...v.M.z.v.v.v.v.v.D.,.i M.z.v.z.z.z.z.z.P.F X < % + + + + % % + < D.M.z.z.z.z.z.z.M.s.@ L i L i L L L i L % ..D.v.v.z.z.",
",.,.,...[ s.v.s.z.z.z.z.z.v...< z.z.z.z.z.z.z.z.P.i X % + + % % + + + O z M.v.v.v.z.z.z.z.M...@ L i i L i i i z z @ ..M.z.z.v.M.",
"< 1 z < 1 1 < < 1 F z F F z @ O 1 Q z F ....[ [ ..z + z Q Q < + @ @ @ + < < z 1 z z 1 z 1 F < @ z < @ < z z Q Q F z F [ [ ..F < ",
"..............s.< z 3.......,.3.......@ F ,.......3.s.3.s.[ @ T F F T [ F z z z @ < F F F F F [ F F F @ ..3.-.....3.....,...+ + ",
"z.z.z.z.z.z.z.D.F [ D.v.z.z.z.z.z.v.D.< ..M.z.z.z.z.z.z.M...@ ,.,.,...........s.z z s...........,.,...z v.D.M.M.M.M.M.M.M.v.< i ",
"s.3.3.3.3.3.3.s...F [ ....,.,.......[ @ Q 3.3.3.3.......3.[ @ z z z z z z z z i @ z [ [ [ [ [ [ Q F [ F F [ T T T T F T [ Q @ % ",
"+ + + + + + + + + < z z z z z z z z < @ F Q [ [ [ Q Q Q Q z z [ F F F F F F F z @ < Q Q F Q [ Q Q F [ @ X o o o o o o o O o 1 [ ",
"% % % % % % % < O z z.,.,.,.,.,.,.,.s.z ,.z.s.s.s.s.s.z.M.[ z M.z.z.z.z.z.z.z.D...T M.z.s.s.s.s.s.s.v.@ + < @ @ @ @ @ @ < + < D.",
"< < < < < < < i + F v.s.s.3.3.3.3.3.s.i 3.M.M.v.v.v.v.v.D.3.F M.z.z.z.z.z.z.z.M.....M.z.z.z.v.z.v.v.M.< O @ % @ < < < < i + @ D.",
"+ + o o o X o O o + @ + 1 F z z < < 1 @ @ 1 F F z z < 1 z @ + < z F F Q [ [ [ [ F z Q [ F 1 F F F F z @ + < < + O + + + + + O O ",
"F + o + + + + + + + + O + z z i < < i z < < @ @ F z z z z z F F F @ z ..............[ [ @ F F F F F F [ ....F O + + + + + + + O ",
"s.@ + < @ < < < < @ % + + ..[ [ [ [ [ T [ ..z < ,.,.,.,.,.,.....,.i 3.D.z.z.z.z.z.z.v.z.z ..,.,.,.,.,.,.,.s.F O < @ @ @ @ @ @ < ",
"F o o @ @ + + + @ @ 1 < @ [ F F F [ [ [ [ ..< < ,.[ [ [ [ [ [ ..3.< F ..............,.[ @ ..,...,.,.......z.F O i < < < < < < < ",
"@ @ 1 Q Q Q F F Q [ z F F 1 < < < 1 z z 1 Q [ Q Q F F F F F Q [ [ z < < z z 1 1 1 1 @ O @ z 1 < < < < < @ F < + @ + + @ + + @ + ",
"< P.z.z.z.z.z.z.z.D.z < ,.[ [ [ T T T T F i z.s.s.s.s.s.s.s.z...[ v.z.z.s.s.z.z.z.D.i % ,.F F F F F F T F @ < < < < < < < < < < ",
"< P.M.z.v.v.v.v.v.D.F z s.,...,.,.,.,.,...< v.M.M.M.M.M.M.M.M.s.3.M.M.M.M.M.M.v.M.P.z @ s.,...............i i i i F T F F F T T ",
"@ [ [ [ z F F F F Q < @ @ < [ F z z z z 1 @ z F ..F F F [ F F 1 @ < Q F 1 F F F F Q @ + i 1 F F F F F F z @ @ @ i + o + + O o O ",
"O o o < ..[ [ T F F ..[ [ @ < F z z z z F F z z @ z F F F F F F F F F + z F F F F F [ [ ..@ @ 3.[ [ [ [ [ [ [ [ F o X o o o X o ",
"% % o < D.z.z.z.z.z.z.z.D.F < z.s.s.s.s.s.3.s.z.z s.M.v.z.z.z.z.z.M.z.z z.m.z.z.z.z.z.z.D.F z D.z.z.s.s.z.z.z.D.T + % % % % % % ",
"+ + O + s.3.3.,.s.s.3.3.v.z < ,.[ [ [ ........[ z ..s.s.s.v.s...3.3...Q ..3.3.3.z.z.s.s.v.< @ s...3.s.s.....[ [ 1 + + + + + @ + ",
"< < 1 < 1 z z z @ < z F Q F F F 1 1 F @ O @ @ + @ @ + @ @ @ < z z z 1 z z z F F < + @ @ @ + O + + + + @ F 1 < + @ 1 1 1 1 + < F ",
"s.s.s.s.s.3.3.z.@ F z.s.s.s.s.s.s.s.z.< % < < i i < < < i O @ M.s.s.s.s.s.s.s.M.< + i < < F F i i i @ + s.z.z.z.z.z.z.z.D.F < M.",
"z.z.z.z.z.z.z.D.< [ D.M.v.v.v.z.z.z.M.z < z z z z z z F F + F M.z.z.z.z.z.z.z.D.z + F z z F F F F F < @ z.z.z.z.z.z.z.z.D...F D.",
"F F F F F F [ [ @ F [ z F F F Q F Q ..@ + @ @ @ @ @ @ + @ @ 1 ..[ [ [ [ ..[ [ ,.< < z z z < 1 < < z F 1 ....[ [ ........3.z @ [ ",
"F F Q F Q [ z + ....Q F F F F [ [ 1 1 ..[ [ [ [ ........1 F ..Q Q Q F Q [ [ F < [ ........[ [ [ ..F z ..F F z F F F F [ @ O + + ",
"z.z.z.z.z.v.z.< s.z.z.z.z.z.z.z.v.3.Q v.z.z.v.v.z.z.z.D.[ ..M.z.z.z.z.z.z.z.s.z s.z.z.z.z.z.z.z.v...F z.s.s.3.3.3.3.3.M.F + F z ",
"3.s.s.z.v.v.3.< z.v.v.v.v.v.z.s.z.[ Q z.3.3.3.3.s.s.z.s.z ..z.z.z.z.s.z.z.s.3.z s.v.z.z.z.z.M.M.M.s.[ s.s.z.v.v.v.s.3.s.z + z i ",
"F z z < z z @ < F F F F F [ T 1 F z F Q F F z z 1 z F F z z F F F Q Q z < 1 z z F F 1 1 z F < + @ @ + + @ @ @ @ + @ F 1 < @ @ @ ",
"3.,.s.+ @ T T [ F F F F F z 1 ,.3.3.3.,.3.3.3.s.z z s.,.3.,.........s.< < ..[ ..F F F F [ F O O + + + + + + + % X @ z...3.3.,.3.",
"z.z.D.< F z.3.,.,.3.3.3.s...F v.z.z.z.z.z.z.z.D.F [ P.v.v.v.z.z.z.z.M.F [ z.s.,.3.s.s.s.z.s.@ i z F z z z z F T O F P.v.v.z.M.M.",
"......+ + F z F T z z F F 1 < [ ....3.........,.@ + ......3...........1 < F F ....F F F z < O + + + + < + @ @ @ o < 3.[ ..3.[ Q ",
"< < @ @ + + @ @ O + @ < < < < < z z < + @ < @ @ @ + + @ @ + < F F F F Q F z F Q 1 < 1 < < @ 1 < < 1 @ O + + O o O + o O + O O O ",
"[ [ [ ......,.T + ,.3.,.,.,.,.,.,.s.z @ ..T T T T ..[ T ..@ ,.M.z.z.z.z.z.v.M.s.[ s.s.s.s.s.s.s.s.M...+ i i i i i 0 0 0 0 + < F ",
"..............[ @ ..,.............s.< @ 3...............,.@ [ M.z.v.z.z.z.z.v.s.3.z.v.v.v.v.z.z.v.D...o % % % % @ % % % % + @ z ",
"z z F F F F z 1 @ @ < < < < < < < < + + @ @ @ + @ + + @ + O < z z z F F F z z < @ < @ @ @ @ @ @ @ < F + + @ @ @ @ @ + + + + 1 F ",
"............3.z < s...............3.z + @ % % % + % % + + + T z z z z z z z F @ X O O O O O O O O X O 3.s.3.3.3.3.3.3.3.3.1 ....",
"z.z.z.z.z.z.M.[ < D.z.z.z.z.z.z.z.M.[ + F i i i i i i i < + ,.,.,.........,.s.F O < @ % % % % % @ % + 3.M.z.z.z.z.z.z.z.z.F 3.s.",
"3.3.3.s.s.s.s.F z v.3.s.s.s.s.s.s.s...< F z F z F F F F z + F F T T T T T F [ < O @ @ @ @ < < @ @ + @ 3.3.3.3.3.s.s.3.3...< [ .."
};
