/* XPM */
static char *_5bc3f0d89dd423e881e1d64bd05d5eeQqRTJXRREwG9Ftxp[] = {
/* columns rows colors chars-per-pixel */
"64 64 204 2 ",
"   c None",
".  c #020101",
"X  c #0A0404",
"o  c #0A0807",
"O  c #000B0A",
"+  c #0C0B0A",
"@  c #050709",
"#  c #1E0302",
"$  c #110E0C",
"%  c #170707",
"&  c #06110F",
"*  c #0E110F",
"=  c #13110F",
"-  c #1B110F",
";  c #100F10",
":  c #041614",
">  c #0B1614",
",  c #051817",
"<  c #0D1816",
"1  c #0B1C1A",
"2  c #151412",
"3  c #191614",
"4  c #141816",
"5  c #191816",
"6  c #141B19",
"7  c #1D1C1A",
"8  c #17161D",
"9  c #2A0000",
"0  c #240A09",
"q  c #320302",
"w  c #3B0202",
"e  c #3A0B0B",
"r  c #211300",
"t  c #2B1815",
"y  c #2D1A1A",
"u  c #271614",
"i  c #331919",
"p  c #3D191A",
"a  c #361615",
"s  c #1F201E",
"d  c #21211E",
"f  c #151823",
"g  c #1C2827",
"h  c #242322",
"j  c #2B2322",
"k  c #282827",
"l  c #2C2C2B",
"z  c #272826",
"x  c #2F302E",
"c  c #21312E",
"v  c #30312C",
"b  c #2C3230",
"n  c #333432",
"m  c #3A3333",
"M  c #343E3D",
"N  c #3C3C3A",
"B  c #373936",
"V  c #2F2A35",
"C  c #470706",
"Z  c #510000",
"A  c #5C0202",
"S  c #580909",
"D  c #5D110D",
"F  c #45191A",
"G  c #491413",
"H  c #55191B",
"J  c #5B1817",
"K  c #630003",
"L  c #6C0103",
"P  c #69040A",
"I  c #66080C",
"U  c #720000",
"Y  c #79090A",
"T  c #6D0B12",
"R  c #720E15",
"E  c #7A0D11",
"W  c #671719",
"Q  c #741213",
"!  c #73141A",
"~  c #721A1D",
"^  c #7A191D",
"/  c #771816",
"(  c #751A21",
")  c #791A20",
"_  c #4B3B39",
"`  c #503230",
"'  c #7A2526",
"]  c #733634",
"[  c #6C312E",
"{  c #554E25",
"}  c #41403E",
"|  c #7A413D",
" . c #313742",
".. c #433D4A",
"X. c #314741",
"o. c #444442",
"O. c #494A47",
"+. c #4B4D4B",
"@. c #444948",
"#. c #504F4C",
"$. c #47524E",
"%. c #465557",
"&. c #545452",
"*. c #575F5A",
"=. c #5D5F5C",
"-. c #535955",
";. c #424951",
":. c #674A45",
">. c #615F5D",
",. c #794344",
"<. c #5A615E",
"1. c #6F6D47",
"2. c #5D6E6A",
"3. c #636B68",
"4. c #616F79",
"5. c #6D7A75",
"6. c #840100",
"7. c #8C0302",
"8. c #8C0C09",
"9. c #860805",
"0. c #970907",
"q. c #8E110E",
"w. c #95120F",
"e. c #851412",
"r. c #831B1B",
"t. c #8A191A",
"y. c #871916",
"u. c #921512",
"i. c #941916",
"p. c #991915",
"a. c #951B1B",
"s. c #9A1B19",
"d. c #9B1612",
"f. c #A31A16",
"g. c #A91816",
"h. c #BC1815",
"j. c #97231F",
"k. c #80282D",
"l. c #892623",
"z. c #952421",
"x. c #982B28",
"c. c #9A322F",
"v. c #89373A",
"b. c #A03E3B",
"n. c #A42A25",
"m. c #D23F3C",
"M. c #93413E",
"N. c #954848",
"B. c #8A504D",
"V. c #904F53",
"C. c #965D5B",
"Z. c #9A5152",
"A. c #AA4B48",
"S. c #B95C58",
"D. c #A95451",
"F. c #BE635E",
"G. c #947169",
"H. c #B66964",
"J. c #C45D59",
"K. c #C1726D",
"L. c #77847F",
"P. c #8F867D",
"I. c #968079",
"U. c #6D7C85",
"Y. c #768C85",
"T. c #7B948B",
"R. c #7E9B91",
"E. c #798B91",
"W. c #808D89",
"Q. c #87938B",
"!. c #849697",
"~. c #AE958B",
"^. c #82A197",
"/. c #8BA79D",
"(. c #96A39F",
"). c #A0A69D",
"_. c #98AEA6",
"`. c #95ACA4",
"'. c #9CB4AD",
"]. c #98ADB3",
"[. c #88BCB2",
"{. c #A1B4AE",
"}. c #A4BBB4",
"|. c #B8B7B5",
" X c #B0C7BD",
".X c #96D6CA",
"XX c #B5CAC3",
"oX c #BBC8C0",
"OX c #BFD3CB",
"+X c #BCDCD4",
"@X c #BAE7E0",
"#X c #C6D4CE",
"$X c #C4DAD2",
"%X c #CADFD8",
"&X c #C8DFD7",
"*X c #CAE2DA",
"=X c #C2E3DB",
"-X c #D0E6DE",
";X c #D3EBE3",
":X c #DBF4EC",
">X c #D0F9F0",
",X c #ECFFFE",
"<X c #E4FEF6",
"1X c white",
/* pixels */
"                                                                                                                                ",
"                                                          j _ j               M j _ l                                           ",
"                                                          C.K C q M         @.w C L B.                                          ",
"                                                            [ Y Y S % 7 5 - A 9.e.]                                             ",
"                                                                | 0.C 9 # S 0.[                                                 ",
"                                                                      y N                                                       ",
"                                                                                                                                ",
"                                      +.h 2 &.                                    X 7 =.                                        ",
"                                    #.. l N o.    B z h l n       N l h h B       N B . }                                       ",
"                                    + $ O.    &.5 5 7 5 5 ; O.  o.; 7 5 7 5 7 +.    >.o o                                       ",
"                                  } + h k v l 5 d 7 h z h k 5 N 3 l h h h 7 7 3 j l l h 2 n                                     ",
"                                  B o l h 7 7 z h z h 7 7 h h o h z 7 7 d z z h 7 7 z l 3 l                                     ",
"                                    . h h x 7 7 d 2 3 3 3 = h h z 2 3 3 3 2 7 7 7 x d h . +.                                    ",
"                                    + X X -.!.. $ 5 5 5 5 3 X 3.3 = 5 5 5 5 2 . W.<.. + X                                       ",
"                                      . . N ;X3.. 3 5 5 X . o.:X*.. X 3 5 5 . *.:X+.. .                                         ",
"                                        . z XX$X-.. . 2 z 5.&X;X*XL.l 3 . . +.OXOXn .                                           ",
"                                          &.'.'.}.2 <.-.#X:X*XXX%X:X*X*.3.+ (.}.'.=.                                            ",
"                                            _.R.Y.W.,Xx ;.].Q.$XQ.].%.d ,X!.5.^.`.                                              ",
"                                            _.T.T.=X>Xl X 1.E.*X!.1.X f ;X;X/.^.'.                                              ",
"                                            {.R./.oX#X!.{ r 4.<XU.r { !.$XXX!.Y._.                                              ",
"                                          OX}.XX@XH.K X. .f v n v f  .#.l n x l s                                               ",
"                                          -X X%X>XS.A O 3 7 2 + 2 7 3 + $ $ 2 2 X .                                             ",
"                                                  K.A : 3 3 3 3 3 3 3 3 3 3 3 3 o n                                             ",
"                                        b o >     J.K , 5 5 5 5 5 3 * & 3 5 5 3 + =.                                            ",
"                                    $.: # u 0 X : r./ , 5 5 5 2 X X 3 _ l 2 5 , 6 5 . @ ..                                      ",
"                                l O % Q W J W H 0 D r., 5 o X $ B 2.P.b.g & < y H a F a 9 8                                     ",
"                              n 5 W 7.h.F W f.a , / y.: 6 c $.Y.`..X~.Z : 6 J g.W J r.H f.e . V                                 ",
"                                    S.6.a 0.w.6 : / / O J ~..X[.[.).l.% , / h.i.t d.i.p d.0.Q 3 7 m                             ",
"                                      J w m.` : 7 % $ 6 0 ' G.I.G.' # 1 > U h.9 S g.0.e L F.                                    ",
"                                            c + * m u $ 1 + q C q + 1 2 < A.A `       G :.                                      ",
"                                            5 = . |.|.. * 6 : : : 6 2 . &.                                                      ",
"                                            7 + . &.1X|.u = 5 5 5 2 3 O.                                                        ",
"                                            &.. 7 . n #X,.S W ~ ~ I v.                                                          ",
"                                              + X 7 X . 3 i i p F a G c.                                                        ",
"                                                + o 7 3 3 4 < < , , # n.+X                                                      ",
"                                                  2 @ 5 5 5 5 5 5 < 0 s.XX                                                      ",
"                                                    m O 4 5 5 5 5 < y 6.C.                                                      ",
"                              C.C b         M e ]   A.w 4 : 4 5 5 4 t 8.)                                                       ",
"                                K w s     $.# A     w.f.^ p 4 : 4 < t p.E                                                       ",
"                                M.9.9     i L a.    7.p.f.s.~ p 5 : 5 p.E                                                       ",
"                                  U Z $.  Z L       8.i.i.p.p.a.~ p t i.E                                                       ",
"                                  N.I O O C x.      q.u.i.i.p.p.p.t.~ ^ T                                                       ",
"                                    :.9 q F         x.8.i.i.i.i.p.p.t.! '                                                       ",
"                                      u 0           A.6.i.i.i.i.i.p.t.P N.                                                      ",
"                                                      6.i.i.i.i.i.p.r.K                                                         ",
"                                                      8.u.i.i.i.i.p.^ T                                                         ",
"                                                      x.8.i.i.i.p.i.Q '                                                         ",
"                                                      A.6.i.i.i.p.t.P N.                                                        ",
"                                                        6.i.i.i.p.r.P                                                           ",
"                                                        q.u.i.p.p.^ T                                                           ",
"                                                        z.q.i.p.t.! )                                                           ",
"                                                        z.u.p.i.^ R '                                                           ",
"                                                        j.w.p.^ ( R k.                                                          ",
"                                                        z.e.^ ~ ) ! )                                                           ",
"                                                        ! ~ ( ) ) ^ R                                                           ",
"                                                        P ) ) ) ) ) L                                                           ",
"                                                      Z.L ) ) ) ) ) P N.                                                        ",
"                                                      k.R ) ) ) ) ) Q '                                                         ",
"                                                      ! ^ ) ) ) ) ) ^ T                                                         ",
"                                                      L ) ) ) ) ) ) ) K                                                         ",
"                                                    V.K ( ( ( ( ( ( ( P v.                                                      ",
"                                                    e.e.t.t.t.t.t.t.t.y.Y D.                                                    ",
"                                                  z.7.s.p.p.p.p.p.p.p.s.7.a.                                                    ",
"                                                                                                                                "
};
