/* XPM */
static char *f8289db19edd474c9ffb09b91ae7c406uxLJbdAtmvkNgPiv[] = {
/* columns rows colors chars-per-pixel */
"64 64 250 2 ",
"   c #0E3839",
".  c #133B3B",
"X  c #163A3B",
"o  c #18423E",
"O  c #0E433F",
"+  c #124440",
"@  c #1C4543",
"#  c #134843",
"$  c #1B4B46",
"%  c #14474C",
"&  c #154B4B",
"*  c #1B4C4B",
"=  c #15524E",
"-  c #1B514D",
";  c #1D5647",
":  c #1D4E52",
">  c #1C5A54",
",  c #1A5552",
"<  c #0E484B",
"1  c #224443",
"2  c #234A45",
"3  c #244D4B",
"4  c #2C4E4C",
"5  c #2A4544",
"6  c #314E4C",
"7  c #255543",
"8  c #295342",
"9  c #2A5A44",
"0  c #24524D",
"q  c #2B524D",
"w  c #245B4D",
"e  c #2B5B4D",
"r  c #275E45",
"t  c #34524F",
"y  c #345B4B",
"u  c #395A4C",
"i  c #315C46",
"p  c #294E52",
"a  c #255451",
"s  c #2C5352",
"d  c #245C52",
"f  c #2C5C52",
"g  c #2C5D5A",
"h  c #225E5B",
"j  c #335452",
"k  c #335B53",
"l  c #3A5D54",
"z  c #335E5A",
"x  c #3B5A57",
"c  c #304E52",
"v  c #1D695B",
"b  c #2E6045",
"n  c #2C644C",
"m  c #2E6B4D",
"M  c #26624D",
"N  c #34644D",
"B  c #3B634E",
"V  c #336B4D",
"C  c #3A6B4F",
"Z  c #2D704D",
"A  c #32724F",
"S  c #357D4E",
"D  c #256053",
"F  c #2A6355",
"G  c #2D6B53",
"H  c #23645A",
"J  c #2C635B",
"K  c #236A5C",
"L  c #2C6B5B",
"P  c #276956",
"I  c #346454",
"U  c #3C6453",
"Y  c #346C52",
"T  c #3C6B54",
"R  c #35635B",
"E  c #3C645A",
"W  c #356B5C",
"Q  c #3C6C5B",
"!  c #2D7254",
"~  c #2D735B",
"^  c #2D7B5D",
"/  c #2F7B50",
"(  c #337154",
")  c #3C7454",
"_  c #357B55",
"`  c #3C7B54",
"'  c #33735B",
"]  c #3D735B",
"[  c #357C5D",
"{  c #3C7B5C",
"}  c #1C5E60",
"|  c #275F60",
" . c #1D6464",
".. c #1D6966",
"X. c #1C6A6B",
"o. c #1E7472",
"O. c #1F766D",
"+. c #236464",
"@. c #2C6362",
"#. c #2C6A65",
"$. c #2B6768",
"%. c #236C6C",
"&. c #2A6B6A",
"*. c #256A66",
"=. c #356562",
"-. c #3C6661",
";. c #346C64",
":. c #3D6C63",
">. c #326D6B",
",. c #3A6F69",
"<. c #366769",
"1. c #2D7366",
"2. c #2E7965",
"3. c #23746E",
"4. c #267B6C",
"5. c #2C7C6C",
"6. c #2B726A",
"7. c #337364",
"8. c #3C7363",
"9. c #347C63",
"0. c #3C7C62",
"q. c #33756C",
"w. c #3B736B",
"e. c #357B6B",
"r. c #3B7B6B",
"t. c #247574",
"y. c #2C7571",
"u. c #237B74",
"i. c #2B7B73",
"p. c #257E7A",
"a. c #297E79",
"s. c #357672",
"d. c #377972",
"f. c #256F73",
"g. c #425E55",
"h. c #415E4C",
"j. c #426554",
"k. c #436B55",
"l. c #42645B",
"z. c #436D5B",
"x. c #4A6D5C",
"c. c #496B55",
"v. c #437356",
"b. c #487156",
"n. c #447B54",
"m. c #4A7D57",
"M. c #44735C",
"N. c #4B745C",
"B. c #437A5B",
"V. c #4B7B5D",
"C. c #51755D",
"Z. c #527C5D",
"A. c #4A6856",
"S. c #456C61",
"D. c #476B62",
"F. c #437463",
"G. c #4B7561",
"H. c #447C62",
"J. c #4C7C63",
"K. c #41766B",
"L. c #447E6C",
"P. c #4C7C6B",
"I. c #4A766B",
"U. c #527562",
"Y. c #537C63",
"T. c #557E68",
"R. c #437A71",
"E. c #3F854E",
"W. c #33814D",
"Q. c #3B8253",
"!. c #3E8A51",
"~. c #35825E",
"^. c #3B845C",
"/. c #3D8B5C",
"(. c #368858",
"). c #3F9C59",
"_. c #2C816A",
"`. c #358262",
"'. c #3C8363",
"]. c #3F8C65",
"[. c #32826C",
"{. c #3C836B",
"}. c #3C8C6B",
"|. c #348969",
" X c #3B9167",
".X c #3C936B",
"XX c #3F9B6D",
"oX c #268279",
"OX c #368B73",
"+X c #3B8B73",
"@X c #3C8873",
"#X c #3D9271",
"$X c #3A9179",
"%X c #4A8156",
"&X c #45825D",
"*X c #4B825C",
"=X c #438C5E",
"-X c #498C5E",
";X c #428654",
":X c #52835C",
">X c #538A5E",
",X c #46955D",
"<X c #4A945E",
"1X c #448363",
"2X c #4B8364",
"3X c #448B65",
"4X c #4B8B64",
"5X c #44846A",
"6X c #4B846B",
"7X c #448C6B",
"8X c #4A8B6A",
"9X c #538365",
"0X c #5A8465",
"qX c #548C65",
"wX c #5A8B66",
"eX c #54856A",
"rX c #5A8469",
"tX c #538B6B",
"yX c #5B8C6A",
"uX c #449364",
"iX c #44926B",
"pX c #4B936C",
"aX c #44996B",
"sX c #4C9A6C",
"dX c #4B9463",
"fX c #529267",
"gX c #54946B",
"hX c #5B946B",
"jX c #549C6B",
"kX c #5B986B",
"lX c #468571",
"zX c #458C72",
"xX c #4A8C71",
"cX c #4A8372",
"vX c #449372",
"bX c #4A9471",
"nX c #469C72",
"mX c #539B74",
"MX c #5A9C71",
"NX c #599573",
"BX c #518D74",
"VX c #618969",
"CX c #639B6E",
"ZX c #63936D",
"AX c #659B74",
"SX c #59A16D",
"DX c #5AA072",
"FX c #62A46F",
"GX c #63A177",
"HX c #288285",
/* pixels */
"k j q q q 6 R &.$.#.$.@.#.=.c s s s s p j z h @.@.@.| g =.<.$.&.>.>.s.:.q q s k k I E F.K.F.F.H.H.H.N.) v.n.n.m.%XZ.m.m.%X%X%X%X",
"= = & # # + H o.X.........h % % % % % % * |  .}  . . .+.+. .%.%.X.o.p.&.$ = a , w w f L 1.^ ^ [ ^ '._ A _ _ Q.Q.!.;Xn.Q.!.!.!.!.",
"* 3 0 $ @ o J t.t.3.%.%.3.@.: : : : : : p @. .+.+.+.+.+.$.%.f.t.t.p.HX>.2 * 0 0 0 w k :.2.9.9.'.'.5XB.A _ ` ` Q.Q.n.n.` E.E.E.E.",
"E J J J g f ;.;.g g g g g s 4 p 3 3 3 3 4 s =.=.=.=.=.=.<.<.J @.@.;.>.R x l.E E z.E D.I.F.] M.M.M.M.b.N.V.V.V.:X*XZ.Z.:X:X:X:X>X",
"R.i.i.i.i.y.y.R 1 @ 1 1 1 @ 4 3 & * * * * $ g $.+.+.@.$.%.R q 0 a d a d =.r.e.r.r.{.{.lXz.N N U C C V N.tX9XwXwXyXfXwXZXMXCXCXCX",
"q.u.4.3.3.3.t.@.@ * * * $ $ 3 * < % % % % % g %.+.+.%.%.X.@.0 > > > h H J q.5.e.e.[.[.}.' n Y Y ( ) A B.qX4X4X4XfXfXwXkXSXSXFXFX",
"I.e.e.e.q.q.q.-.6 s s q 4 4 t j a s s s s 4 z &.$.&.&.&.&.-.j z z R R g E K.e.r.r.r.r.5XU N T U T T T b.0X0XwXwXwXyXVXVXkXZXCXCX",
"w.w.w.w.q.w.x s j j s q s j 6 4 4 4 4 4 j 5 @ 1 1 @ @ 2 k f s f k k k l.E Q Q :.:.Q M.J.F.H.J.2X2X9Xb.k.b.N.N.N.C.Z.V.V.%X%X%X%X",
"4.4.4.4.O.i.g = , = * & & * + + + + + O @ X       . . X 0 = = , > > > R #.L L 7.7.7.8.5X}.7X3XiXsXgXM.V ) ) ) ` ` n.Q.Q.!.!.!.!.",
"_._.4.4.oXd.J = > , , * * 3 o o o o + + 2 o   . . .   1 s , > > > d d R ;.#.7.7.7.9.0.7X}.8XiXpXpXfXv.V ) ) ) ` v.n.Q.Q.;X!.;X;X",
"K.K.8.8.:.:.l.x x x x z z j q q q s 4 2 t 6 6 j t t t t x z z x E E R l.E Q Q z.z.z.x.G.J.J.J.9XeXrXC.b.N.C.C.m.V.Z.Z.V.*X:X*X%X",
"Q Q W l 4 3 3 q q 3 j >.&.$.$.$.$.>.k 3 3 0 s s a x s a 0 3 0 0 k R P P J J L W U y N N B B N N.fX4XgXgXkXhXyXwXjXkXkXkXkXhXqX,X",
"' ' ' I * - = * & # 0 *.X.........*.a & * * & & = a * & & & = = 0 H v K K K K ~ I n m G m V n B.sXaXsXsXjXjXfXfXjXjXjXjXjXkX<X).",
"Q 8.8.E 3 0 q 0 3 @ q ;.#.#.#.#.#.;.j 3 3 3 0 a 0 j q 0 q q s s k R W W W W W Q U N N B C U B N.fXfXfXkXgXgXwXwXgXhXkXkXkXyX>X,X",
"F.l I k y e e l :.;.;.w.w.w.w.,.w.w.;.;.;.;.-.z g z R R R -.g.j l U j.U j.x.M.z.z.Q z.z.M.M.M.N.V.V.*X9XyXtX0X0XwXwXVXVXyXwXyXwX",
"`.e w w D w ; e d.oXa.u.u.t.t.y.u.u.u.u.u.oX6.+.+.+.+.+. .#.f ; w w w w e Q ~ ~ ' [ [ 9.0.^.^.^.^.^.^.&XeXgXfXfXfXjXgXgXSXjXjXjX",
"0.e M w w w ; q d.p.i.i.i.u.t.y.u.p.oXp.p.oXy.@.+. .+.+...#.f ; w w w w e E ~ ~ [ [ [ `.0.^.^.^.=X=X/.&XtXpXfXhXgXgXhXkXSXjXjXjX",
"F.E Q U R R R j.K.d.w.d.d.d.w.w.d.q.&.>.q.6.=.f R =.=.=.=.-.l k R I E E E S.8.B.] ] ] ] v.) ` V.V.V.V.V.T.0XwXwXwXwX0XwXhXhXhXhX",
"0.0.H.5X{.r.r.{.q.7.F.w.w.,.,.,.w.k o 2 2 2 2 @ t :.=.;.;.;.;.:.F.r.8.K.K.r.L.z.N I Y Y Y Y ) 2X4X2X2X4X4X2X*X-X-X-X-X-X-XwXAXZX",
"9._.9.{.|.[.[.[._.2.q.5.q.6.6.6.s.g # $ $ $ $ # 0 ;.*.&.*.&.1.;.8.2.7.7.9.9.r.Q n G ! G G ! ] 3X X].3XuXuX3X-XuXuX,X<X,X,XhXGXDX",
"9.9.H.5X}.}.{.@X{.L.K.d.e.w.w.q.d.E 2 3 3 3 3 $ t :.#.=.;.;.7.:.S.8.8.r.r.r.r.S.U T Y T Y Y T 1X3X1X4X3XuX4X-X,X-X-X<XdXdXZXAXAX",
"J.z.j.j.Q Q z.E z.D.S.:.:.:.:.S.:.R R R R R R l.S.:.:.:.:.S.S.Q E Q ] ] ] M.F.G.G.G.G.G.U.Y.9X9X9XwXtXtX9X2X9X9X9X9X0X0X:X*X:X:X",
"8XU 7 9 8 7 8 8 y J F F F F D E R v *.K K K L ;.*.#.&.1.1.1.Q L L ~ ~ ~ ~ ' [ [ `.`.`.^.{ tXMXgXgXgXhXMXyX9XqXwXqXqXqX0Xn.W.W.W.",
"zXU 9 e e e e 7 I W L L L L H R L v K K K v H #.1.1.1.1.1.1.W L ~ ~ ~ ~ ^ [ [ ^ `.`.^.^.^.tXmXgXpXjXMXMXfX4X4XqXqXqXfXwX` W.Q.Q.",
"6Xj.y B B B u u l R R R R R R E E W Q W W W R W 7.;.;.;.;.;.S.z.M.z.z.z.M.M.B.0.H.H.H.B.B.0XyXtXtXyXyXyX0X9X0X0X0X0XwX0XZ.m.m.m.",
"T ) Y Y Y Y Q j.k k k y e q E 8.8.8.8.8.8.S.F.7.7.7.7.7.8.L.5X5X5X5X6X6XG.Q ] B.F.H.] G.J.H.H.J.J.J.J.rXhXyXyXyXyXhX9X&X2X2X2X2X",
"! ! ! ! G ! ( R d f f e w 0 W 5.1.2.1.1.2.8.7.1.7.7.q.5.7.5XOXOXOX+X}.#X0.' ' 9.0.0.[ H.2X'.1X3X1X3X2XfXDXjXjXjXjXMX4X/.=X=X=X=X",
"( ( ( Y G G T l.e k k f k j Q e.e.e.e.q.q.K.w.e.r.r.e.7.8.L.+X{.{.}.#XvXH.' 0.0.`.0.9.F.J.1X2X6X6X3X2XhXDXMXMXMXMXAXqX=X=X=X=X=X",
"M.v.v.M.N.v.M.x.z.z.z.z.j.u U I I I U Q W Q l.Q z.E S.P.I.L.5X5X5X5XF.M.x.x.M.M.M.B.{ B.V.V.V.*XV.C.C.Y.9X9X9X9X0XwX9XV.V.V.Z.9X",
"6X6X5X5XJ.{ { [ { [ [ { i 7 7 8 8 8 8 j f f f f f 0 W $X+X@X@X@X+XlXB N N U U U U B./.^.^.^.^./.m.k.v.) v.v.) v.m.%X%X*X*X*XZ.9X",
"1X1X1X5XH.[ ~.~.[ [ ^ ] 9 ; 7 7 7 7 7 k D D D D d d W $XOX+X+X+X$XzXU m Y Y Y Y Y B.(.^.^.^././.&XM._ ` ` B.{ B.*X-X*X*X*X*X*X4X",
"J.J.J.J.G.{ H.H.F.F.H.G.g.y u u u y u j.E E E E E l S.xXlXlXlXlXzX5XU U j.j.j.j.j.N.&X&X&XV.B.&XZ.b.M.M.N.N.M.N.Z.:XZ.Z.Z.Z.Z.0X",
"J.J.V.V.B.J.x.U U U j.j.B N.cXcXL.L.L.lXP.l.Q Q Q Q Q l.G.[ { 0.[ { [ F.eX9X9X9X9XeXrXU.J.J.V.V.J.V.J.9X2X2X9X9X9XY.C.N.N.b.N.C.",
"1X1X1X^.^.1XT n n n n n r ' $X+X+X+X+XOX{.I P P P P P I ] ^ ^ [ `.`.~.}.pXpXpXpXpXiXtXB.^.&X1X1X1X1X4XuX3X3X3X3XuX&Xv.B.B.B.B.B.",
"1X1X1X1X^.2Xk.n N N N n 9 W vX@X@X@X@X+XlXI F L L W G U M.~.[ `.~.~.`.1XgXpXpXpXgXbXeXV.{ B.1XH.1X1X4XpXpXpXpXpXpXV.v.B.B.B.B.B.",
"J.V.V.J.J.J.M.T U U T z.x.G.eXP.P.P.6XeXU.l.z.z.z.x.x.G.J.2XJ.J.J.J.N.M.J.J.J.J.J.eXeXY.J.J.J.J.J.N.N.V.V.B.B.V.2XY.V.V.V.V.V.V.",
"1X1X&X&XH.] [ { [ [ [ ] 6X8X1X1X5X5X6XU.T ] ] ] ] T M.7X}.7X}.zXvXxXM.Y Y Y Y Y Y G.8X7X8X8X8XiX2XC V V V V V V V.4X4X4X4X4X4X9X",
"3X3X'.'.H.[ [ [ [ [ ^ ' 1X7X7X7X7X7X7XH.W ' ' ' ' ' ' }..X.X#X#X#X#X] G ( ( ( ' ' 1XiXiX7X7XiXiX3XY Z ( ( ( A V &X4X4X4X4X4X4X2X",
"2X2X2X1XN.v.{ B.] ] ' M.P.6X6X6X6X6X6XU.U T Q Q T W z.8X7X7XxXxX7X8XN.Q z.M.v.Q Q N.8X3X4X4X4X8XJ.k.C C C C C T Z.9X2X2X2X2X2X9X",
"b.b.b.b.2X6X6X2X2X1X1XM.z.v.] ] ] Q N.J.F.F.F.F.F.F.G.H.H.H.P.H.J.J.V.V.J.J.V.M.N.J.2X4X4X4X1XY.rXeXeXrXeXeXrXY.2XJ.J.9X9X9XV.v.",
") ) ) )  XXX.X X X XiX[ ! ! ~ ~ ' ! ] {.{.{.{.{.{.H.0.`.9.9.9.9.0.B.~.^.^.^.'.'.1X3X3X3X3X3X3X9XNXmXmXmXmXmXNX2X4X4X4X4X4X4XB._ ",
") ) ) v.iXXX.X X X.XiX[ ! ' ~ ' ' ! 0.5X{.{.{.{.{.H.0.`.`.`.`.`.'.1X~.^.'.'.'.^.&X3X3X3X3X3XiX9XNXmXmXmXmXmXNX2X=X4X4X4X4X4X&X_ ",
"N.N.b.N.2X4X4X2XH.1XJ.M.Q ] M.M.M.v.G.H.F.F.H.F.H.H.F.H.H.F.F.B.G.Y.V.J.J.H.J.B.V.Y.9X9X9X9X9XT.rXtXyXyXtXtXeXY.9X9XY.Z.Y.Y.C.N.",
"4X4X4X4X&X&XV.N.B.B.B.B.B.H.N.M.B.B.` ) ] v.J.1X1X1X1X1X6XN.k.M.M.M.M.M.N.J.J.J.J.J.H.Y.T.1XJ.J.H.J.V.2X8X8X8X8X8XbXJ.h.U B j.k.",
"=X3X=X=X=X3X3X{ 0.{ { { { 0.{ [ [ [ [ [ [ { 1X].3X3X3X3X3XB.) ` ` ` ` ) B.1X1X1X1X1X1XJ.2X1X1X1X1X1X1X3XaXiXiXiXiXnX1XN V V V V ",
"&X-X*X-X&X4X2XH.0.H.H.H.H.H.M.M.` B.B.` _ M.9X8X8X8X8X8X6XN.M.B.B.B.B.M.Y.eXeXeXeX6X2XY.J.2X2X2X2X2XJ.8XiXiXiXiXiXbXJ.B T T k.T ",
"9X9X9X9XtXN.k.k.T k.k.k.b.M.M.v.v.M.B.N.B B c.k.k.k.k.x.b.k.k.v.b.k.b.b.N.U.N.b.b.N.N.V.N.V.V.V.V.Y.J.J.2XJ.J.J.J.M.v.k.k.k.k.c.",
"pXpXpXpXpXv.V V V V V V T [ [ [ ' ' [ ] B b b 9 9 b i B Y Y Y Y T V T ( Z m Z Z Z C B.^.{ { { { B.H.}.'.1XH.H.1XM.C ( ) ) ) ( T ",
"iXiXiXiXpX) V V V V V V T [ [ ' ' ' ^ ] y r b b b b i U ( Y Y Y Y Y T A A A A A Z T B._ { _ { _ ` H.}.'.'.1X1X1XN.C A ( Y Y Y T ",
"eXeXeXeXeXC.c.b.b.k.k.k.k.M.] B.F.F.B.N.A.j.c.c.c.c.c.c.v.k.k.v.M.k.b.) ) ) ) ) ) k.N.V.V.V.V.V.C.U.Y.Y.Y.J.H.H.N.b.v.M.x.z.k.x.",
"v.N.9X2XJ.2X2X2XT.J.1X1XH.H.0.H.2X8X3X1X8X8X8XeXeXeXeX6X6X6X9X8X8X8X8X8X8X8X6X6X6X6X6X6X6X9XtXtXtX8XqXpXrXV.{ B.{ H.0.H.G.0.H.H.",
"/ { 7X3X3X3X3X3X6X'.`.`.`.'.'.'.]. X X X X X X3X8X8X8X8X8X8X6X8X.XiXiXiXiXiX8X8X8X8X8X7X7X4XaXaXaXaXaXaXpX{ ~.^.~.`.`.^.{ 9.0.0.",
"A B.6X1X6X1X1X3X9XH.'.'.0.'.}.H.1XiXiXiXiX].].2X6X8X8X8X8X8X6X8XpXpXpXiXiX8X6X8X8X8X8X8X6XtXsXsXsXsXsXsXfXB.^.^.{ '.}.1XF.H.H.H.",
"J.J.eXeX2X9X2X2XJ.J.J.J.J.J.G.N.G.H.H.H.M.Y.J.Y.T.Y.Y.Y.H.) M.B.F.F.B.V.T.Y.Y.Y.Y.Y.U.U.J.G.J.J.J.J.J.H.J.G.N.N.M.N.x.j.j.z.j.j.",
"bXbXbXpX7X8X5X}.].].].].}.H.z.] ] ] ] ] z.J.7X5X5X5X5X8X) m ( ( ( ( G T M.) ) ) ) ) v.] [ [ ' ' ' ' ] F.] 0.0.] 0.] n n n n e e ",
"bXbXbXiXiXiX7X}.}.}.}.}..X1X] ] ] ] ] ] v.2X7X7X7X7X7X8X{ ! ! ! ! ! ! ) B.` ` ` ` ` M.{ ~.[ [ [ [ [ { 0.0.0.0.[ [ ] n n n M M M ",
"tXtXtXtX8XtXeX1X6X2X1X2X5XJ.x.M.M.M.M.v.N.eX5X2X2X2X2X6XN.z.N.M.M.M.v.U.U.M.M.M.M.M.b.M.{ B.] ] ] ) M.G.J.G.F.G.G.x.j.U U U U U ",
"k.k.k.k.k.k.T c.j.U U U U U j.2X8X1X1X1X3X8XN.U T T T T T C.C.N.C.N.C.C.U.V.^.B.B.B.B.&Xv.T Q Q Q Y T x.M.z.z.z.z.Q x.l.U U U k ",
"Y m m m V m m T I n n n n n I 3X.X X X X XiXB.Y T T Y Y Y v.B.` ` ` ` _ B.1X(.^.^.^.^./.] Y ( Y Y ( ( T ( ( ( ( Y ! ( I D D d d ",
"T V Y V V V m k.U n n I I n I 8XaXiXiX3X7XiXM.U T Y Q Q Y x.V.B.B.B.B.B.N.V.^.^.^.^.^.^.T I Y Y ( Y Y z.] ' ( ' ' ( ] E F F f f ",
"U N V U N.M.B.G.M.M.G.j.U U j.N.H.M.J.eX6X2XJ.G.J.G.N.N.N.N.M.M.V.N.M.M.M.N.V.V.J.2X2X2XB.] B.N.l.z.U j.j.k.x.z.E E j.j.U l E R ",
"I Y n U xXzXxXzXzXzXBXx.V T Y N N i M.xX6X6X7X8XxX6X` [ _ _ { _ B.B.[ { { { { [ J.pX8X8XpXpXbX6Xj.T T Y Y Y U R e f e e f e E 7.",
"G G n Y 7X7X7X7X7X7X7XT m Y Y Y Y N B.zX7X7X7X7XzX6X` [ [ [ [ _ { { [ [ [ { [ [ H.pXiXiX7X7X.X5XT Y Y Y Y Y Y I w w w w w w R 1.",
"U U I j.6X7X5X5X5X7X6Xz.N Y Y U U N M.8X6X6X6X6X6XP.) _ { { { _ ) B.0.{ 0.{ { { J.8X8X8X7X8X7XJ.j.T Y T T Y U U k k f f f e E :."
};
